<svg width="148" height="171" viewBox="0 0 148 171" fill="none" xmlns="http://www.w3.org/2000/svg">
<mask id="mask0_549_6067" style="mask-type:alpha" maskUnits="userSpaceOnUse" x="0" y="12" width="148" height="147">
<ellipse cx="74" cy="85.5" rx="74" ry="73.5" fill="#D9D9D9"/>
</mask>
<g mask="url(#mask0_549_6067)">
<path d="M131.719 79.6157L74.4483 107.255L17.1777 79.6157C18.0271 78.29 19.2404 77.2054 20.7353 76.5209L70.5656 52.4586C72.9923 51.2944 75.8631 51.2944 78.3311 52.4586L128.159 76.5209C129.615 77.2054 130.828 78.29 131.719 79.6157Z" fill="#E09F44"/>
<path opacity="0.1" d="M131.718 79.6157L74.4473 107.255V51.5764C75.7407 51.5764 77.1167 51.856 78.33 52.4586L128.158 76.5209C129.614 77.2054 130.827 78.29 131.718 79.6157Z" fill="black"/>
<path d="M74.4596 107.264V172.066C73.1128 172.066 71.766 171.808 70.5769 171.191L20.7126 147.122C19.2202 146.411 17.9611 145.294 17.081 143.902C16.201 142.51 15.7362 140.898 15.7403 139.254V84.4267C15.7403 82.7298 16.2596 81.0329 17.1914 79.5916L74.4596 107.264Z" fill="#FFE691"/>
<path d="M133.125 84.429V139.254C133.129 140.898 132.665 142.509 131.785 143.902C130.906 145.294 129.647 146.41 128.155 147.122L78.3417 171.191C77.1333 171.778 75.804 172.077 74.459 172.066V107.264L131.73 79.5939C132.627 81.0503 133.109 82.7215 133.125 84.429Z" fill="#FFDC6E"/>
<path opacity="0.1" d="M133.132 84.4362V139.148C133.132 142.561 131.191 145.615 128.118 147.102L78.2929 171.162C75.8662 172.329 72.9929 172.329 70.5274 171.162L23.4102 148.428C55.887 156.782 89.1719 149.272 110.728 127.82C125.41 113.237 130.948 95.8853 133.132 84.4362Z" fill="black"/>
<path d="M52.2413 127.62L8.00222 106.245C7.06672 105.793 6.24242 105.142 5.5874 104.34C4.93237 103.537 4.46255 102.601 4.21105 101.599C3.95954 100.596 3.93247 99.5506 4.13174 98.5364C4.33101 97.5223 4.75177 96.5638 5.36437 95.7286L17.1995 79.5988L74.4361 107.252L61.1037 125.426C60.1204 126.767 58.6938 127.721 57.0736 128.122C55.4535 128.523 53.7429 128.345 52.2413 127.62Z" fill="#F0BD59"/>
<path d="M96.6206 127.62L140.86 106.245C141.795 105.793 142.619 105.142 143.275 104.34C143.93 103.537 144.399 102.601 144.651 101.599C144.902 100.596 144.929 99.5506 144.73 98.5364C144.531 97.5223 144.11 96.5638 143.498 95.7286L131.662 79.5988L74.4258 107.252L87.7582 125.426C88.7415 126.767 90.1681 127.721 91.7883 128.122C93.4085 128.523 95.119 128.345 96.6206 127.62Z" fill="#F0BD59"/>
<path d="M74.4334 87.7433C93.8776 87.7433 109.64 72.0871 109.64 52.7743C109.64 33.4614 93.8776 17.8053 74.4334 17.8053C54.9892 17.8053 39.2266 33.4614 39.2266 52.7743C39.2266 72.0871 54.9892 87.7433 74.4334 87.7433Z" fill="#F7524B"/>
<path d="M90.89 36.4275C90.2667 35.8083 89.5267 35.3171 88.7122 34.982C87.8978 34.6469 87.0249 34.4744 86.1433 34.4744C85.2618 34.4744 84.3888 34.6469 83.5744 34.982C82.76 35.3171 82.02 35.8083 81.3967 36.4275L74.432 43.3451L67.4673 36.4275C66.2084 35.1771 64.501 34.4746 62.7206 34.4746C60.9403 34.4746 59.2328 35.1771 57.9739 36.4275C56.7151 37.6779 56.0078 39.3738 56.0078 41.1421C56.0078 42.9104 56.7151 44.6063 57.9739 45.8567L64.9386 52.7743L57.9739 59.6919C57.3506 60.3111 56.8561 61.0461 56.5188 61.855C56.1814 62.6639 56.0078 63.5309 56.0078 64.4065C56.0078 65.2821 56.1814 66.1491 56.5188 66.958C56.8561 67.767 57.3506 68.502 57.9739 69.1211C58.5973 69.7402 59.3373 70.2314 60.1517 70.5664C60.9662 70.9015 61.8391 71.074 62.7206 71.074C63.6021 71.074 64.4751 70.9015 65.2895 70.5664C66.1039 70.2314 66.8439 69.7402 67.4673 69.1211L74.432 62.2035L81.3967 69.1211C82.6555 70.3715 84.363 71.074 86.1433 71.074C87.9237 71.074 89.6311 70.3715 90.89 69.1211C92.1489 67.8707 92.8561 66.1748 92.8561 64.4065C92.8561 62.6382 92.1489 60.9423 90.89 59.6919L83.9253 52.7743L90.89 45.8567C91.5134 45.2376 92.0079 44.5026 92.3453 43.6936C92.6827 42.8847 92.8563 42.0177 92.8563 41.1421C92.8563 40.2665 92.6827 39.3994 92.3453 38.5905C92.0079 37.7816 91.5134 37.0466 90.89 36.4275Z" fill="#F0F0FC"/>
<path opacity="0.1" d="M109.646 52.784C109.646 72.0665 93.8552 87.7505 74.4414 87.7505C67.2801 87.7559 60.2883 85.5866 54.4033 81.5336C48.5183 77.4806 44.0215 71.7374 41.5156 65.0742C55.0276 74.7926 73.5629 75.0505 86.0896 65.3827C97.221 56.7971 102.087 41.6796 98.5145 27.3309C102.034 30.5838 104.839 34.5236 106.755 38.9034C108.67 43.2833 109.655 48.0088 109.646 52.784Z" fill="black"/>
</g>
</svg>