<svg width="18" height="15" viewBox="0 0 18 15" fill="none" xmlns="http://www.w3.org/2000/svg">
<path d="M4.83342 0.333252L0.666748 4.49993L2.75009 5.78955L4.83342 4.49993L6.00989 2.41659L4.83342 0.333252Z" fill="#FF2820"/>
<path d="M4.83342 4.49988H0.666748V9.91656L2.75009 11.0606L4.83342 9.91656V4.49988Z" fill="#0084FF"/>
<path d="M0.666748 9.9165V12.6943C0.666748 13.4582 1.29175 14.0832 2.05565 14.0832H4.83342L6.00989 11.8715L4.83342 9.9165H0.666748Z" fill="#0066DD"/>
<path d="M16.4731 1.81257L13.8961 3.85395V3.87488L13.0557 7.08355L13.8961 10.3307L16.4617 12.3955C16.8059 12.6844 17.3336 12.4418 17.3336 11.9912V2.21694C17.3336 1.76635 16.8173 1.52374 16.4731 1.81257Z" fill="#00AD3C"/>
<path d="M13.896 3.85399V1.7062C13.896 0.951092 13.2843 0.333252 12.5366 0.333252H4.8335V4.49993H9.93767V7.20826L12.68 6.90276L13.896 3.85399Z" fill="#FFBA00"/>
<path d="M9.93767 9.91659H4.8335V14.0833H12.5366C13.2843 14.0833 13.896 13.4663 13.896 12.7123V10.3333L12.5356 7.5383L9.93767 7.20825V9.91659Z" fill="#00AD3C"/>
<path d="M9.93726 7.20815L13.8956 10.3332V3.85388L9.93726 7.20815Z" fill="#00831E"/>
</svg>
