<svg xmlns="http://www.w3.org/2000/svg" width="20" height="20" viewBox="0 0 512 512" fill="none">
<path
d="M45.3974 335.561L16.1981 145.774C14.0382 131.758 30.0058 122.191 41.3495 130.702L132.323 198.925C134.688 200.696 137.389 201.967 140.261 202.66C143.133 203.353 146.116 203.453 149.029 202.954C151.941 202.456 154.721 201.369 157.199 199.76C159.677 198.151 161.802 196.054 163.442 193.597L239.184 79.9998C247.184 68.0001 264.816 68.0001 272.815 79.9998L348.558 193.597C350.198 196.054 352.322 198.151 354.801 199.76C357.279 201.369 360.059 202.456 362.971 202.954C365.883 203.453 368.867 203.353 371.739 202.66C374.611 201.967 377.312 200.696 379.677 198.925L470.65 130.702C482.01 122.191 497.962 131.758 495.802 145.774L466.602 335.561H45.3974ZM444.635 440.87H67.3648C64.48 440.87 61.6234 440.302 58.9582 439.198C56.293 438.094 53.8713 436.476 51.8315 434.436C47.7118 430.317 45.3974 424.729 45.3974 418.903V370.664H466.602V418.903C466.602 431.031 456.763 440.87 444.635 440.87Z"
fill="#FFB743"
/>
</svg>