<svg width="24" height="24" viewBox="0 0 24 24" fill="none" xmlns="http://www.w3.org/2000/svg">
<g clip-path="url(#clip0_2865_134104)">
<path d="M19.961 4.62145C19.9444 4.50027 19.8382 4.43324 19.7507 4.42593C19.6632 4.41862 17.9548 4.39265 17.9548 4.39265C17.9548 4.39265 16.526 3.00501 16.3849 2.86377C16.2437 2.72254 15.968 2.76538 15.861 2.79688L15.143 3.01916C15.068 2.77532 14.9572 2.47584 14.7995 2.1749C14.2907 1.2044 13.5459 0.690694 12.6457 0.689382H12.6426C12.5802 0.689382 12.518 0.695241 12.4558 0.700913C12.4296 0.668914 12.4024 0.637698 12.3744 0.607304C11.9825 0.187819 11.4792 -0.0165556 10.8768 0.0011163C9.71391 0.0344444 8.55642 0.874116 7.61756 2.3653C6.95667 3.41484 6.45459 4.73329 6.31181 5.75371C4.97691 6.1671 4.04292 6.45637 4.02272 6.4627C3.34889 6.67415 3.3277 6.69534 3.23934 7.33016C3.17245 7.81077 1.40953 21.4447 1.40953 21.4447L16.1861 24L22.5904 22.4082C22.5904 22.4082 19.9775 4.74262 19.961 4.62145ZM7.13962 5.4973C7.53919 3.62905 9.10462 0.826257 10.8991 0.774648C11.1721 0.768929 11.4021 0.828835 11.5984 0.958069C11.2844 1.12115 10.9806 1.35552 10.6956 1.66115C9.95705 2.45343 9.39131 3.68362 9.1657 4.86988L7.13962 5.4973ZM12.4831 3.84271L10.0161 4.60659C10.2548 3.69355 10.7066 2.78451 11.2618 2.18896C11.4683 1.96743 11.7572 1.72021 12.0993 1.57907C12.4212 2.24971 12.4909 3.20043 12.4831 3.84271ZM13.2561 3.60337C13.2475 3.01457 13.1772 2.19562 12.9029 1.48766C13.7851 1.65482 14.2195 2.65307 14.4029 3.24829L13.2561 3.60337Z" fill="#F3F7FA"/>
<path d="M19.7507 4.42594C19.6632 4.41863 17.9548 4.39266 17.9548 4.39266C17.9548 4.39266 16.526 3.00502 16.3849 2.86379C16.3322 2.8111 16.2608 2.78415 16.1865 2.77252L16.1869 23.9999L22.5904 22.4082C22.5904 22.4082 19.9776 4.74263 19.961 4.62146C19.9444 4.50029 19.8382 4.43326 19.7507 4.42594Z" fill="#A5CCE7"/>
<path d="M12.6371 7.71879L11.8933 10.5013C11.8933 10.5013 11.0636 10.1235 10.0799 10.1856C8.63761 10.2767 8.62228 11.1865 8.63667 11.4145C8.71523 12.659 11.9891 12.9309 12.1731 15.8457C12.3179 18.1389 10.9567 19.7075 8.99545 19.8314C6.6419 19.98 5.34595 18.5912 5.34595 18.5912L5.84465 16.4694C5.84465 16.4694 7.14886 17.4534 8.19286 17.3875C8.87479 17.3444 9.11845 16.7898 9.0937 16.3976C8.99118 14.7742 6.32531 14.8698 6.15689 12.2025C6.01514 9.95754 7.48926 7.68331 10.742 7.4779C11.9953 7.39882 12.6371 7.71879 12.6371 7.71879Z" fill="#22465F"/>
</g>
<defs>
<clipPath id="clip0_2865_134104">
<rect width="24" height="24" fill="white"/>
</clipPath>
</defs>
</svg>
