<svg width="256" height="160" viewBox="0 0 256 160" fill="none" xmlns="http://www.w3.org/2000/svg">
<rect width="256" height="160" fill="#D8FFF5"/>
<path d="M226.128 151.637C226.128 151.681 181.126 151.72 125.632 151.72C70.137 151.72 25.1228 151.681 25.1228 151.637C25.1228 151.592 70.1146 151.554 125.625 151.554C181.136 151.554 226.128 151.592 226.128 151.637Z" fill="#263238"/>
<path d="M171.604 24.7506H51.4121V103.939H171.604V24.7506Z" fill="white"/>
<path d="M171.604 103.942C171.604 103.399 171.579 73.0559 171.537 24.7506L171.604 24.8177H51.4216L51.5046 24.7346C51.5046 52.9063 51.5046 79.7287 51.5046 103.926L51.428 103.849L171.62 103.926L51.428 104H51.3513V103.926C51.3513 79.7127 51.3513 52.9063 51.3513 24.7346V24.6514H51.444L171.627 24.6706H171.69V24.7346C171.623 73.0559 171.604 103.402 171.604 103.942Z" fill="#263238"/>
<path d="M171.604 31.7975C171.604 31.8422 144.695 31.8806 111.51 31.8806C78.3241 31.8806 51.4121 31.8422 51.4121 31.7975C51.4121 31.7527 78.3146 31.7144 111.51 31.7144C144.705 31.7144 171.604 31.7527 171.604 31.7975Z" fill="#263238"/>
<path d="M163.373 43.5125H62.6113V57.3154H163.373V43.5125Z" fill="#60DCBD"/>
<path d="M83.256 81.4553H60.8862V103.846H83.256V81.4553Z" fill="#60DCBD"/>
<path d="M109.698 81.4553H87.3286V103.846H109.698V81.4553Z" fill="#60DCBD"/>
<path d="M135.352 81.4553H112.982V103.846H135.352V81.4553Z" fill="#60DCBD"/>
<path d="M100.885 71.9656H76.6375C75.6578 71.9656 74.7183 71.5763 74.0253 70.8832C73.3322 70.1901 72.9425 69.25 72.9417 68.2695C72.9459 67.2911 73.3371 66.3543 74.0298 65.664C74.7224 64.9737 75.66 64.5861 76.6375 64.5861H100.885C101.866 64.5861 102.806 64.9759 103.499 65.6696C104.192 66.3634 104.581 67.3043 104.581 68.2855C104.576 69.2632 104.185 70.1993 103.492 70.8889C102.799 71.5785 101.862 71.9656 100.885 71.9656Z" fill="#008060"/>
<path d="M129.232 71.9656L129.551 71.9432C129.663 71.9432 129.794 71.9048 129.954 71.8793C130.658 71.7309 131.304 71.3793 131.812 70.868C132.319 70.3567 132.666 69.7079 132.809 69.0017C132.984 68.117 132.832 67.1989 132.381 66.4182C132.113 65.9586 131.747 65.5631 131.31 65.2594C130.873 64.9557 130.376 64.751 129.851 64.6597C129.26 64.6023 128.666 64.5842 128.072 64.6053H126.156H122.003L76.6088 64.6309C75.6676 64.624 74.761 64.9853 74.0822 65.6377C73.4033 66.2902 73.0059 67.1823 72.9746 68.1238C72.9434 69.0654 73.2808 69.9819 73.9149 70.678C74.549 71.3742 75.4297 71.7949 76.3692 71.8505C76.8835 71.8761 77.4169 71.8505 77.9376 71.8505H89.9897L110.398 71.8697L124.156 71.8952L127.897 71.9112L124.156 71.9272L110.398 71.9528H89.9897H77.9376C77.4137 71.9528 76.8963 71.9528 76.3596 71.9528C75.8175 71.919 75.2891 71.7685 74.8104 71.5116C74.0716 71.1107 73.4875 70.4748 73.1502 69.7044C72.813 68.934 72.7419 68.0731 72.9482 67.2577C73.1545 66.4423 73.6264 65.7191 74.2894 65.2022C74.9523 64.6854 75.7685 64.4045 76.6088 64.4039L122.003 64.4263H126.156H128.072C128.671 64.4038 129.271 64.4252 129.867 64.4902C130.36 64.5773 130.83 64.7625 131.249 65.0348C131.669 65.3072 132.03 65.6611 132.31 66.0756C132.59 66.4901 132.785 66.9567 132.882 67.4478C132.978 67.939 132.975 68.4445 132.873 68.9345C132.717 69.6484 132.359 70.3022 131.842 70.8177C131.46 71.1904 131.004 71.4771 130.503 71.6586C130.326 71.7221 130.144 71.7734 129.96 71.8121C129.797 71.8345 129.663 71.8601 129.554 71.8665L129.232 71.9656Z" fill="#263238"/>
<path d="M96.8765 74.5522H97.1544L96.8158 76.2436H97.8635L97.8156 76.4834H96.4932L96.8765 74.5522Z" fill="#263238"/>
<path d="M98.0742 75.8695C98.0702 75.7554 98.0897 75.6416 98.1315 75.5353C98.1732 75.4289 98.2363 75.3323 98.3168 75.2514C98.3974 75.1704 98.4937 75.1069 98.5998 75.0648C98.7058 75.0226 98.8194 75.0027 98.9335 75.0063C99.0218 74.9965 99.1112 75.006 99.1956 75.034C99.2799 75.0621 99.3572 75.108 99.4221 75.1688C99.487 75.2295 99.5381 75.3036 99.5717 75.3859C99.6054 75.4682 99.6208 75.5569 99.6171 75.6457C99.6215 75.7599 99.6025 75.8737 99.5611 75.9802C99.5198 76.0867 99.4571 76.1836 99.3768 76.2648C99.2965 76.346 99.2005 76.4099 99.0946 76.4525C98.9886 76.495 98.8751 76.5154 98.761 76.5122C98.6729 76.5188 98.5844 76.5071 98.501 76.4778C98.4177 76.4484 98.3413 76.4021 98.2768 76.3417C98.2122 76.2813 98.1609 76.2081 98.1261 76.1269C98.0912 76.0456 98.0735 75.958 98.0742 75.8695ZM99.352 75.6521C99.3568 75.5948 99.3487 75.5371 99.3283 75.4833C99.3078 75.4295 99.2755 75.381 99.2338 75.3414C99.1921 75.3017 99.142 75.272 99.0872 75.2544C99.0325 75.2368 98.9745 75.2318 98.9175 75.2397C98.8387 75.2399 98.7607 75.2564 98.6885 75.288C98.6162 75.3197 98.5513 75.3659 98.4977 75.4238C98.444 75.4817 98.4029 75.55 98.3767 75.6245C98.3506 75.699 98.3401 75.778 98.3458 75.8567C98.3415 75.914 98.35 75.9714 98.3707 76.0249C98.3913 76.0784 98.4236 76.1267 98.4652 76.1661C98.5068 76.2056 98.5566 76.2353 98.6111 76.2532C98.6656 76.271 98.7233 76.2765 98.7802 76.2692C98.8589 76.269 98.9368 76.2525 99.0088 76.2208C99.0809 76.1891 99.1457 76.1428 99.1991 76.0849C99.2524 76.027 99.2933 75.9586 99.319 75.8842C99.3448 75.8097 99.3549 75.7307 99.3488 75.6521H99.352Z" fill="#263238"/>
<path d="M101.492 75.0222L101.205 76.4834H100.949L100.984 76.3044C100.916 76.3696 100.835 76.4208 100.747 76.4548C100.659 76.4888 100.565 76.505 100.47 76.5026C100.385 76.5077 100.3 76.4947 100.22 76.4644C100.14 76.4341 100.067 76.3871 100.007 76.3267C99.9467 76.2663 99.8998 76.1937 99.8695 76.1138C99.8392 76.0339 99.8262 75.9484 99.8313 75.8631C99.8252 75.7511 99.8421 75.639 99.881 75.5339C99.92 75.4287 99.9801 75.3326 100.058 75.2517C100.135 75.1707 100.229 75.1066 100.332 75.0633C100.435 75.02 100.547 74.9984 100.659 74.9999C100.762 74.9898 100.866 75.009 100.96 75.0554C101.053 75.1017 101.131 75.1733 101.186 75.262L101.234 75.0158L101.492 75.0222ZM101.099 75.6617C101.104 75.6042 101.095 75.5464 101.074 75.4927C101.054 75.4389 101.021 75.3905 100.979 75.3509C100.937 75.3114 100.887 75.2817 100.832 75.2641C100.777 75.2465 100.719 75.2415 100.662 75.2492C100.583 75.2499 100.506 75.2667 100.434 75.2986C100.362 75.3304 100.297 75.3767 100.244 75.4346C100.191 75.4924 100.15 75.5605 100.124 75.6348C100.098 75.7091 100.088 75.7879 100.093 75.8663C100.089 75.9235 100.097 75.981 100.118 76.0345C100.139 76.088 100.171 76.1362 100.213 76.1757C100.254 76.2152 100.304 76.2449 100.359 76.2628C100.413 76.2806 100.471 76.2861 100.528 76.2788C100.608 76.2792 100.687 76.2627 100.76 76.2306C100.833 76.1986 100.899 76.1515 100.952 76.0924C101.006 76.0334 101.047 75.9637 101.073 75.8879C101.098 75.812 101.107 75.7317 101.099 75.6521V75.6617Z" fill="#263238"/>
<path d="M103.492 74.4371L103.083 76.4834H102.831L102.866 76.3044C102.726 76.4358 102.54 76.507 102.348 76.5026C102.263 76.5077 102.178 76.4947 102.098 76.4644C102.018 76.4341 101.946 76.3871 101.885 76.3267C101.825 76.2663 101.778 76.1937 101.748 76.1138C101.717 76.0339 101.704 75.9484 101.71 75.8631C101.704 75.7512 101.721 75.6394 101.76 75.5344C101.799 75.4294 101.86 75.3336 101.937 75.2527C102.015 75.1718 102.108 75.1077 102.211 75.0642C102.314 75.0207 102.425 74.9988 102.537 74.9999C102.641 74.9899 102.746 75.0095 102.84 75.0564C102.934 75.1033 103.013 75.1757 103.067 75.2652L103.233 74.4307L103.492 74.4371ZM102.978 75.6521C102.983 75.5948 102.974 75.537 102.954 75.4833C102.934 75.4295 102.901 75.381 102.86 75.3413C102.818 75.3017 102.768 75.272 102.713 75.2544C102.658 75.2368 102.6 75.2318 102.543 75.2397C102.464 75.2399 102.386 75.2564 102.314 75.288C102.242 75.3197 102.177 75.3659 102.123 75.4238C102.07 75.4817 102.029 75.55 102.002 75.6245C101.976 75.6989 101.966 75.778 101.972 75.8567C101.967 75.9143 101.976 75.972 101.997 76.0258C102.017 76.0796 102.05 76.128 102.092 76.1675C102.134 76.2071 102.184 76.2367 102.239 76.2543C102.294 76.2719 102.352 76.277 102.409 76.2692C102.488 76.269 102.566 76.2525 102.638 76.2208C102.71 76.1891 102.775 76.1428 102.828 76.0849C102.881 76.027 102.922 75.9586 102.948 75.8841C102.974 75.8097 102.984 75.7307 102.978 75.6521Z" fill="#263238"/>
<path d="M103.875 75.0222H104.14L103.853 76.4834H103.584L103.875 75.0222ZM103.92 74.581C103.919 74.556 103.924 74.5311 103.934 74.508C103.943 74.4848 103.957 74.4639 103.975 74.4465C103.993 74.4291 104.015 74.4156 104.038 74.4068C104.062 74.3981 104.087 74.3942 104.112 74.3955C104.133 74.3947 104.153 74.398 104.173 74.4052C104.193 74.4125 104.211 74.4236 104.226 74.4378C104.242 74.4521 104.254 74.4692 104.263 74.4883C104.272 74.5074 104.277 74.528 104.278 74.549C104.279 74.5745 104.274 74.5998 104.265 74.6235C104.256 74.6472 104.241 74.6687 104.223 74.6867C104.206 74.7047 104.184 74.7188 104.16 74.7281C104.137 74.7374 104.111 74.7418 104.086 74.7409C104.065 74.7413 104.043 74.7375 104.023 74.7297C104.003 74.7219 103.985 74.7102 103.97 74.6954C103.954 74.6805 103.942 74.6628 103.933 74.6432C103.925 74.6235 103.92 74.6024 103.92 74.581Z" fill="#263238"/>
<path d="M105.923 75.4922C105.922 75.5501 105.917 75.6078 105.907 75.6649L105.744 76.4834H105.479L105.642 75.6649C105.645 75.6244 105.645 75.5838 105.642 75.5434C105.642 75.3516 105.533 75.246 105.303 75.246C105.17 75.2389 105.04 75.2835 104.939 75.3705C104.839 75.4576 104.776 75.5803 104.763 75.7129L104.607 76.4834H104.342L104.632 75.0222H104.888L104.85 75.2077C104.92 75.1403 105.003 75.0878 105.094 75.0532C105.186 75.0186 105.283 75.0026 105.38 75.0062C105.449 74.9946 105.52 74.9987 105.587 75.0181C105.654 75.0376 105.716 75.0719 105.768 75.1186C105.82 75.1653 105.861 75.2231 105.888 75.2878C105.915 75.3524 105.927 75.4223 105.923 75.4922Z" fill="#263238"/>
<path d="M107.929 75.0222L107.68 76.3012C107.673 76.4087 107.645 76.5138 107.597 76.6103C107.55 76.7067 107.483 76.7926 107.401 76.8627C107.32 76.9328 107.225 76.9857 107.122 77.0184C107.02 77.051 106.911 77.0626 106.804 77.0525C106.564 77.0645 106.328 76.9909 106.137 76.8447L106.284 76.6433C106.437 76.7643 106.628 76.8266 106.824 76.8191C106.893 76.8275 106.964 76.8218 107.031 76.8022C107.099 76.7825 107.161 76.7495 107.216 76.705C107.27 76.6605 107.315 76.6055 107.347 76.5432C107.38 76.481 107.399 76.4128 107.405 76.3427L107.427 76.2372C107.284 76.3721 107.093 76.4446 106.897 76.4387C106.815 76.4463 106.732 76.4366 106.654 76.41C106.576 76.3835 106.505 76.3407 106.444 76.2846C106.384 76.2284 106.336 76.1601 106.304 76.0842C106.272 76.0083 106.256 75.9264 106.258 75.844C106.256 75.7343 106.276 75.6254 106.317 75.5239C106.359 75.4223 106.42 75.3303 106.498 75.2533C106.576 75.1764 106.669 75.1162 106.771 75.0765C106.873 75.0368 106.982 75.0183 107.092 75.0222C107.201 75.0126 107.31 75.0342 107.406 75.0846C107.503 75.1351 107.584 75.2121 107.638 75.3068L107.692 75.0382L107.929 75.0222ZM107.523 75.6169C107.523 75.3835 107.363 75.2397 107.089 75.2397C107.013 75.2365 106.937 75.2492 106.866 75.2768C106.795 75.3044 106.73 75.3464 106.676 75.4001C106.622 75.4539 106.58 75.5182 106.552 75.589C106.524 75.6599 106.511 75.7358 106.514 75.812C106.514 76.0486 106.677 76.1925 106.951 76.1925C107.027 76.1952 107.103 76.1821 107.174 76.1541C107.245 76.1261 107.309 76.0837 107.363 76.0297C107.416 75.9757 107.458 75.9111 107.486 75.8401C107.514 75.7691 107.526 75.6931 107.523 75.6169Z" fill="#263238"/>
<path d="M108.795 76.3235C108.793 76.2973 108.797 76.271 108.807 76.2464C108.816 76.2218 108.83 76.1994 108.848 76.1805C108.867 76.1616 108.889 76.1467 108.913 76.1366C108.937 76.1266 108.963 76.1216 108.99 76.1221C109.013 76.1221 109.036 76.1268 109.057 76.1358C109.078 76.1449 109.098 76.1582 109.114 76.1749C109.13 76.1916 109.142 76.2114 109.151 76.2331C109.159 76.2548 109.163 76.278 109.162 76.3012C109.163 76.3272 109.159 76.3531 109.15 76.3775C109.141 76.4019 109.127 76.4242 109.109 76.4431C109.091 76.4619 109.07 76.4769 109.046 76.4871C109.022 76.4974 108.996 76.5026 108.97 76.5026C108.947 76.5026 108.924 76.498 108.902 76.4889C108.881 76.4799 108.861 76.4666 108.845 76.45C108.829 76.4333 108.816 76.4135 108.807 76.3918C108.798 76.3701 108.794 76.3469 108.795 76.3235Z" fill="#263238"/>
<path d="M109.421 76.3235C109.419 76.2973 109.423 76.271 109.433 76.2464C109.442 76.2218 109.456 76.1994 109.474 76.1805C109.493 76.1616 109.515 76.1467 109.539 76.1366C109.563 76.1266 109.589 76.1216 109.616 76.1221C109.639 76.1221 109.662 76.1268 109.683 76.1358C109.704 76.1449 109.724 76.1582 109.74 76.1749C109.756 76.1916 109.768 76.2114 109.777 76.2331C109.785 76.2548 109.789 76.278 109.788 76.3012C109.789 76.3272 109.785 76.3531 109.776 76.3775C109.767 76.4019 109.753 76.4242 109.735 76.4431C109.717 76.4619 109.696 76.4769 109.672 76.4871C109.648 76.4974 109.622 76.5026 109.596 76.5026C109.573 76.5026 109.55 76.498 109.528 76.4889C109.507 76.4799 109.487 76.4666 109.471 76.45C109.455 76.4333 109.442 76.4135 109.433 76.3918C109.424 76.3701 109.42 76.3469 109.421 76.3235Z" fill="#263238"/>
<path d="M110.044 76.3235C110.043 76.2971 110.047 76.2708 110.057 76.2462C110.066 76.2216 110.081 76.1992 110.099 76.1803C110.118 76.1615 110.14 76.1466 110.165 76.1366C110.189 76.1266 110.215 76.1217 110.242 76.1221C110.265 76.1221 110.288 76.1268 110.309 76.1358C110.33 76.1449 110.35 76.1582 110.366 76.1749C110.382 76.1916 110.395 76.2114 110.403 76.2331C110.411 76.2548 110.415 76.278 110.414 76.3012C110.415 76.3272 110.411 76.3531 110.402 76.3775C110.393 76.4019 110.379 76.4242 110.361 76.4431C110.344 76.4619 110.322 76.4769 110.298 76.4871C110.274 76.4974 110.248 76.5026 110.222 76.5026C110.175 76.5026 110.13 76.4837 110.096 76.4502C110.062 76.4166 110.044 76.371 110.044 76.3235Z" fill="#263238"/>
<path d="M55.9893 28.6161C55.9893 28.7907 55.9376 28.9613 55.8407 29.1064C55.7439 29.2515 55.6062 29.3646 55.4451 29.4314C55.284 29.4982 55.1067 29.5157 54.9357 29.4816C54.7647 29.4476 54.6076 29.3635 54.4843 29.2401C54.361 29.1167 54.277 28.9595 54.243 28.7883C54.209 28.6171 54.2265 28.4397 54.2932 28.2784C54.3599 28.1172 54.4729 27.9794 54.6179 27.8824C54.7629 27.7854 54.9333 27.7337 55.1077 27.7337C55.3415 27.7337 55.5658 27.8266 55.7311 27.9921C55.8964 28.1576 55.9893 28.3821 55.9893 28.6161Z" fill="#263238"/>
<path d="M59.7459 28.6161C59.7459 28.7907 59.6942 28.9613 59.5973 29.1064C59.5005 29.2515 59.3628 29.3646 59.2017 29.4314C59.0406 29.4982 58.8633 29.5157 58.6923 29.4816C58.5213 29.4476 58.3642 29.3635 58.2409 29.2401C58.1176 29.1167 58.0336 28.9595 57.9996 28.7883C57.9656 28.6171 57.983 28.4397 58.0498 28.2784C58.1165 28.1172 58.2295 27.9794 58.3745 27.8824C58.5195 27.7854 58.6899 27.7337 58.8643 27.7337C59.0981 27.7337 59.3224 27.8266 59.4877 27.9921C59.653 28.1576 59.7459 28.3821 59.7459 28.6161Z" fill="#263238"/>
<path d="M63.4896 28.6161C63.4896 28.7908 63.4378 28.9616 63.3408 29.1067C63.2438 29.2519 63.1059 29.365 62.9446 29.4317C62.7833 29.4984 62.6059 29.5157 62.4348 29.4814C62.2637 29.4471 62.1066 29.3627 61.9834 29.239C61.8602 29.1153 61.7765 28.9577 61.7429 28.7863C61.7092 28.6149 61.7271 28.4374 61.7943 28.2762C61.8616 28.115 61.9751 27.9774 62.1205 27.8808C62.2659 27.7843 62.4366 27.733 62.6111 27.7337C62.8444 27.7345 63.0678 27.8279 63.2325 27.9933C63.3971 28.1587 63.4896 28.3827 63.4896 28.6161Z" fill="#263238"/>
<path d="M159.076 100.422C182.243 100.422 201.024 81.6235 201.024 58.4345C201.024 35.2455 182.243 16.4471 159.076 16.4471C135.909 16.4471 117.128 35.2455 117.128 58.4345C117.128 81.6235 135.909 100.422 159.076 100.422Z" fill="#F5F5F5"/>
<path d="M201.011 58.4345C201.011 58.4345 201.011 58.2043 200.985 57.7534C200.985 57.5264 200.969 57.2482 200.96 56.9157C200.95 56.5832 200.96 56.1931 200.902 55.7583C200.845 55.3235 200.829 54.8279 200.784 54.2907C200.739 53.7536 200.643 53.1621 200.564 52.5258C200.354 51.0629 200.07 49.6116 199.714 48.1774C199.256 46.3844 198.682 44.6231 197.995 42.905C197.185 40.8588 196.209 38.8826 195.076 36.9963C192.315 32.3827 188.703 28.3366 184.432 25.0735C179.244 21.1205 173.203 18.4378 166.793 17.24C161.362 16.2349 155.788 16.299 150.381 17.4287C146.534 18.2409 142.823 19.5996 139.361 21.4637C137.567 22.4327 135.844 23.5256 134.202 24.7346C130.816 27.238 127.829 30.2402 125.341 33.6391C124.061 35.3803 122.919 37.2191 121.926 39.1386C121.687 39.6277 121.412 40.0978 121.198 40.6061L120.514 42.1025C120.109 43.1224 119.693 44.1456 119.358 45.2007C118.65 47.314 118.116 49.4815 117.761 51.6817C117.411 53.9137 117.227 56.1687 117.211 58.4281C117.226 60.6873 117.408 62.9423 117.758 65.1744C118.115 67.3764 118.649 69.5459 119.355 71.6618L119.623 72.4452L119.754 72.8384L119.904 73.2221C120.117 73.738 120.319 74.2506 120.511 74.76L121.188 76.2564C121.402 76.7584 121.677 77.2348 121.917 77.724C122.91 79.6445 124.052 81.4843 125.331 83.2266C126.592 84.9318 127.971 86.5462 129.458 88.0578C130.939 89.5227 132.517 90.8847 134.183 92.1344C135.832 93.3417 137.562 94.4346 139.361 95.4052C141.114 96.3383 142.928 97.1512 144.791 97.8384C146.621 98.4934 148.491 99.0275 150.391 99.4371C155.797 100.567 161.372 100.631 166.803 99.6257C173.212 98.4259 179.251 95.7422 184.439 91.789C188.711 88.5269 192.324 84.4806 195.085 79.8662C196.216 77.9792 197.192 76.0031 198.002 73.9575C198.695 72.2416 199.274 70.4813 199.733 68.6883C200.129 67.0673 200.407 65.6125 200.586 64.3399C200.663 63.7005 200.749 63.1186 200.806 62.5782C200.864 62.0379 200.886 61.5487 200.921 61.1106C200.957 60.6726 200.972 60.2857 200.979 59.9532C200.985 59.6207 200.998 59.3393 201.004 59.1155C201.004 58.6647 201.03 58.4345 201.03 58.4345C201.03 58.4345 201.03 58.6647 201.03 59.1155C201.03 59.3393 201.03 59.6207 201.011 59.9532C200.992 60.2857 201.011 60.6758 200.96 61.1138C200.909 61.5519 200.893 62.041 200.851 62.5814C200.81 63.1217 200.717 63.7101 200.64 64.3463C200.435 65.8124 200.154 67.2669 199.8 68.7043C199.351 70.5024 198.781 72.2681 198.094 73.9895C197.285 76.0478 196.307 78.0358 195.172 79.9333C192.411 84.5629 188.796 88.6243 184.519 91.9009C179.318 95.8676 173.26 98.5582 166.832 99.7568C161.382 100.768 155.789 100.708 150.362 99.5809C146.491 98.7714 142.756 97.4092 139.271 95.5363C137.471 94.5638 135.74 93.4677 134.09 92.2559C132.417 91.002 130.831 89.6358 129.343 88.1665C127.848 86.6488 126.46 85.0281 125.191 83.3161C123.905 81.5669 122.758 79.7196 121.76 77.7911C121.521 77.3019 121.246 76.8319 121.029 76.3203L120.348 74.8176C120.147 74.3028 119.946 73.7913 119.741 73.2765L119.588 72.8896L119.457 72.4963L119.189 71.7066C118.479 69.583 117.945 67.4047 117.592 65.1936C116.857 60.7089 116.857 56.1344 117.592 51.6497C117.945 49.4397 118.479 47.2625 119.189 45.1399C119.524 44.0816 119.943 43.0585 120.348 42.0321L121.029 40.5294C121.246 40.0242 121.521 39.5478 121.76 39.0586C122.757 37.1308 123.904 35.2845 125.191 33.5368C126.458 31.8235 127.846 30.2026 129.343 28.6865C130.833 27.2246 132.42 25.8658 134.093 24.6195C135.742 23.4021 137.473 22.3017 139.274 21.3262C142.759 19.4533 146.494 18.0912 150.365 17.2816C155.79 16.1499 161.384 16.0891 166.832 17.1025C173.26 18.312 179.315 21.01 184.515 24.9808C188.794 28.2565 192.409 32.3181 195.168 36.9484C196.299 38.8415 197.274 40.8241 198.082 42.8762C198.768 44.5978 199.338 46.3635 199.787 48.1614C200.18 49.7857 200.452 51.2469 200.627 52.5194C200.704 53.1589 200.787 53.744 200.838 54.2843C200.889 54.8247 200.915 55.3171 200.947 55.7551C200.979 56.1931 201.011 56.5928 201.011 56.9125C201.011 57.2323 201.011 57.5264 201.03 57.7534C201.011 58.1915 201.011 58.4345 201.011 58.4345Z" fill="#263238"/>
<mask id="mask0_2976_14682" style="mask-type:luminance" maskUnits="userSpaceOnUse" x="121" y="19" width="77" height="66">
<path d="M142.267 73.091C139.231 69.8671 137.211 65.8189 136.46 61.4525C135.709 57.086 136.261 52.5948 138.045 48.5402C139.83 44.4856 142.769 41.0474 146.495 38.6552C150.221 36.263 154.568 35.023 158.994 35.09C163.42 35.157 167.728 36.5282 171.38 39.0321C175.032 41.5361 177.866 45.0617 179.527 49.1685C181.189 53.2753 181.604 57.7811 180.721 62.1229C179.839 66.4646 177.697 70.4497 174.565 73.5802L185.898 84.6558C191.235 79.3532 194.884 72.5873 196.383 65.2116C197.883 57.8358 197.166 50.1808 194.324 43.2122C191.482 36.2437 186.641 30.2738 180.413 26.0558C174.185 21.8378 166.849 19.5607 159.329 19.5117C151.809 19.4627 144.444 21.6441 138.161 25.7806C131.879 29.917 126.961 35.8233 124.029 42.7543C121.096 49.6852 120.28 57.3303 121.684 64.7249C123.087 72.1195 126.647 78.9324 131.915 84.3041L142.267 73.091Z" fill="white"/>
</mask>
<g mask="url(#mask0_2976_14682)">
<path d="M142.267 73.091C139.231 69.8671 137.211 65.8189 136.46 61.4525C135.709 57.086 136.261 52.5948 138.045 48.5402C139.83 44.4856 142.769 41.0474 146.495 38.6552C150.221 36.263 154.568 35.023 158.994 35.09C163.42 35.157 167.728 36.5282 171.38 39.0321C175.032 41.5361 177.866 45.0617 179.527 49.1685C181.189 53.2753 181.604 57.7811 180.721 62.1229C179.839 66.4646 177.697 70.4497 174.565 73.5802L185.898 84.6558C191.235 79.3532 194.884 72.5873 196.383 65.2116C197.883 57.8358 197.166 50.1808 194.324 43.2122C191.482 36.2437 186.641 30.2738 180.413 26.0558C174.185 21.8378 166.849 19.5607 159.329 19.5117C151.809 19.4627 144.444 21.6441 138.161 25.7806C131.879 29.917 126.961 35.8233 124.029 42.7543C121.096 49.6852 120.28 57.3303 121.684 64.7249C123.087 72.1195 126.647 78.9324 131.915 84.3041L142.267 73.091Z" fill="#008060"/>
<g opacity="0.8">
<path d="M178.995 57.4305H199.467C199.467 57.4305 197.398 74.111 196.982 74.4211C196.567 74.7313 184.457 88.7196 184.457 88.7196L170.69 72.3493L178.995 57.4305Z" fill="black"/>
</g>
<g opacity="0.7">
<path d="M173.472 43.634L187.958 29.3995L198.158 44.6316L199.519 57.4305H179.241L175.548 49.2933L173.472 43.634Z" fill="black"/>
</g>
<g opacity="0.5">
<path d="M159.967 38.4703C159.721 38.0547 159.967 17.9562 159.967 17.9562L172.45 19.5261L187.821 29.457L173.054 43.9601L163.755 42.6141L159.967 38.4703Z" fill="black"/>
</g>
<g opacity="0.3">
<path d="M130.231 30.1828C130.55 30.2851 143.998 44.6859 143.998 44.6859L156.006 39.9219L159.858 35.1259L159.967 17.969L145.656 19.5389L130.231 30.1828Z" fill="black"/>
</g>
<g opacity="0.1">
<path d="M119.661 57.4305C119.981 57.6383 142.433 57.4305 142.433 57.4305L142.037 42.6332L131.196 31.1228L123.801 39.9219L119.661 57.4305Z" fill="black"/>
</g>
</g>
<path d="M159.501 67.1824C164.328 67.1824 168.24 63.2658 168.24 58.4345C168.24 53.6031 164.328 49.6866 159.501 49.6866C154.674 49.6866 150.761 53.6031 150.761 58.4345C150.761 63.2658 154.674 67.1824 159.501 67.1824Z" fill="#E0E0E0"/>
<path d="M156.929 59.0196C157.113 59.6483 157.537 60.1789 158.11 60.4958C158.682 60.8126 159.357 60.89 159.986 60.711L190.383 52.0782L159.012 55.8574C158.655 55.9009 158.311 56.0218 158.005 56.2115C157.699 56.4012 157.438 56.6553 157.24 56.9561C157.042 57.257 156.911 57.5973 156.858 57.9537C156.804 58.31 156.829 58.6737 156.929 59.0196Z" fill="#455A64"/>
<path d="M154.834 77.3563L153.163 85.8452H150.947L151.819 81.3689L148.995 85.0075H147.941L146.388 81.3721L145.494 85.8484H143.287L144.983 77.3595H146.935L148.944 82.2674L152.777 77.3563H154.834Z" fill="#263238"/>
<path d="M162.999 79.2715L161.689 85.8452H159.507L159.641 85.2281C159.127 85.7101 158.445 85.9707 157.741 85.9539C156.322 85.9539 154.965 84.8764 154.965 82.958C154.965 80.7774 156.562 79.1628 158.526 79.1628C159.411 79.1628 160.124 79.4313 160.539 80.0612L160.695 79.2715H162.999ZM160.101 82.2674C160.116 82.0993 160.094 81.93 160.037 81.7712C159.98 81.6125 159.889 81.4681 159.77 81.3482C159.652 81.2283 159.508 81.1357 159.35 81.0769C159.192 81.018 159.024 80.9944 158.856 81.0076C157.945 81.0076 157.29 81.7462 157.29 82.8493C157.276 83.0171 157.298 83.1862 157.356 83.3445C157.413 83.5028 157.505 83.6466 157.624 83.7657C157.743 83.8849 157.886 83.9765 158.045 84.0342C158.203 84.0918 158.372 84.1141 158.539 84.0994C159.462 84.0899 160.104 83.3609 160.104 82.2674H160.101Z" fill="#263238"/>
<path d="M168.11 82.5839L169.889 85.8452H167.442L166.544 84.125L164.947 85.8452H162.36L165.644 82.4912L163.909 79.2939H166.321L167.193 80.9693L168.758 79.2939H171.304L168.11 82.5839Z" fill="#263238"/>
<path d="M170.502 84.6942C170.497 84.4989 170.531 84.3046 170.604 84.1232C170.677 83.9419 170.785 83.7774 170.924 83.6399C171.063 83.5023 171.228 83.3947 171.41 83.3236C171.592 83.2525 171.786 83.2195 171.981 83.2266C172.15 83.2171 172.318 83.243 172.476 83.3027C172.634 83.3624 172.778 83.4545 172.899 83.5731C173.019 83.6918 173.113 83.8343 173.175 83.9916C173.237 84.1489 173.266 84.3174 173.259 84.4863C173.264 84.6804 173.229 84.8734 173.157 85.0536C173.085 85.2338 172.977 85.3976 172.84 85.5348C172.703 85.6721 172.539 85.78 172.359 85.852C172.179 85.9241 171.986 85.9587 171.793 85.9539C171.624 85.9609 171.456 85.9333 171.298 85.8729C171.14 85.8125 170.997 85.7205 170.876 85.6025C170.755 85.4846 170.66 85.3432 170.595 85.187C170.531 85.0308 170.499 84.8631 170.502 84.6942Z" fill="#263238"/>
<path d="M155.275 92.1951H157.923L157.795 92.8537H153.991L154.096 92.339L156.674 90.2735C157.386 89.698 157.597 89.3495 157.597 88.9178C157.597 88.4862 157.278 88.1537 156.562 88.1537C156.306 88.1536 156.052 88.2058 155.817 88.3069C155.581 88.4081 155.368 88.5561 155.192 88.742L154.693 88.3039C154.949 88.0382 155.257 87.8288 155.598 87.689C155.939 87.5491 156.306 87.482 156.674 87.4918C157.747 87.4918 158.361 88.0386 158.361 88.8187C158.361 89.4326 158.095 89.9633 157.188 90.6795L155.275 92.1951Z" fill="#263238"/>
<path d="M160.443 88.2112L160.005 89.666H160.52C161.874 89.666 162.487 90.2256 162.487 91.0824C162.487 92.1791 161.586 92.9145 160.232 92.9145C159.894 92.9358 159.556 92.8878 159.237 92.7734C158.919 92.659 158.627 92.4808 158.379 92.2495L158.779 91.6644C158.976 91.8603 159.212 92.0128 159.472 92.1119C159.731 92.2111 160.009 92.2546 160.286 92.2399C161.2 92.2399 161.73 91.8402 161.73 91.1656C161.73 90.6444 161.353 90.3247 160.385 90.3247H159.108L159.932 87.5526H162.922L162.791 88.2112H160.443Z" fill="#263238"/>
<path d="M163.212 90.9673C163.212 89.1289 164.251 87.4918 165.892 87.4918C167.004 87.4918 167.678 88.2112 167.678 89.439C167.678 91.2807 166.634 92.9145 165.008 92.9145C163.886 92.9145 163.212 92.1951 163.212 90.9673ZM166.921 89.455C166.921 88.6141 166.512 88.176 165.832 88.176C164.637 88.176 163.969 89.7299 163.969 90.9641C163.969 91.805 164.378 92.2431 165.068 92.2431C166.253 92.2399 166.921 90.6891 166.921 89.455Z" fill="#263238"/>
<path d="M204.825 145.005L206.182 147.199L209.639 143.202L207.818 141.268L204.825 145.005Z" fill="#008060"/>
<path d="M209.332 142.793C209.203 143.017 209.048 143.224 208.869 143.41C208.549 143.774 208.125 144.264 207.629 144.794L206.352 146.144C206.186 146.341 206 146.52 205.796 146.678C205.929 146.457 206.085 146.251 206.262 146.064C206.582 145.699 207.01 145.21 207.502 144.679L208.779 143.33C208.945 143.133 209.13 142.953 209.332 142.793Z" fill="#263238"/>
<path d="M206.15 143.001C206.469 143.196 206.756 143.44 207 143.723C207.284 143.966 207.531 144.249 207.732 144.564C207.414 144.367 207.127 144.124 206.882 143.842C206.599 143.598 206.352 143.315 206.15 143.001Z" fill="#263238"/>
<g opacity="0.6">
<path d="M206.182 147.199L209.639 143.202L209.297 142.834L205.767 146.716L206.138 147.16" fill="white"/>
</g>
<path d="M177.558 150.246V149.706L183.017 149.747V151.525L182.698 151.544C181.197 151.614 175.064 151.797 174.073 151.509C172.93 151.186 177.558 150.246 177.558 150.246Z" fill="#008060"/>
<g opacity="0.6">
<path d="M181.046 151.474C181.135 151.039 181.386 150.654 181.749 150.399C182.12 150.133 182.572 150.006 183.027 150.041V151.454L181.046 151.474Z" fill="white"/>
</g>
<g opacity="0.6">
<path d="M175.297 150.78C175.297 150.78 173.674 151.205 173.872 151.454C174.07 151.704 180.277 151.736 183.014 151.525V151.413L175.776 151.432C175.776 151.432 175.613 150.793 175.297 150.78Z" fill="white"/>
</g>
<path d="M183.094 151.41H182.998H182.73L181.743 151.445C180.909 151.467 179.756 151.486 178.481 151.48C177.207 151.474 176.054 151.448 175.22 151.416L174.233 151.371L173.965 151.355H173.872H174.233L175.22 151.378C176.057 151.4 177.207 151.419 178.481 151.426C179.756 151.432 180.906 151.426 181.743 151.426L182.73 151.41H183.094Z" fill="#263238"/>
<path d="M175.776 151.512C175.735 151.358 175.674 151.21 175.597 151.071C175.504 150.942 175.397 150.824 175.277 150.719C175.442 150.774 175.581 150.887 175.667 151.039C175.764 151.176 175.803 151.346 175.776 151.512Z" fill="#263238"/>
<path d="M177.373 150.764C177.373 150.764 177.284 150.684 177.204 150.569C177.124 150.454 177.076 150.348 177.092 150.342C177.108 150.335 177.181 150.419 177.261 150.537C177.341 150.655 177.395 150.754 177.373 150.764Z" fill="#263238"/>
<path d="M177.823 150.55C177.823 150.55 177.724 150.508 177.632 150.428C177.539 150.348 177.475 150.275 177.488 150.262C177.56 150.287 177.624 150.328 177.676 150.383C177.769 150.463 177.836 150.537 177.823 150.55Z" fill="#263238"/>
<path d="M178.104 150.073C178.013 150.104 177.916 150.115 177.82 150.105C177.725 150.115 177.63 150.105 177.539 150.076C177.629 150.044 177.725 150.033 177.82 150.044C177.916 150.033 178.013 150.043 178.104 150.073Z" fill="#263238"/>
<path d="M178.203 149.738C178.106 149.794 177.996 149.823 177.884 149.821C177.776 149.837 177.665 149.823 177.564 149.779C177.67 149.763 177.777 149.756 177.884 149.76C177.989 149.741 178.096 149.733 178.203 149.738Z" fill="#263238"/>
<path d="M177.2 150.319C177.085 150.341 176.967 150.341 176.852 150.319C176.727 150.305 176.603 150.28 176.482 150.243C176.408 150.223 176.336 150.195 176.268 150.16C176.247 150.149 176.229 150.135 176.214 150.117C176.199 150.1 176.188 150.079 176.181 150.057C176.177 150.033 176.179 150.008 176.189 149.985C176.199 149.962 176.215 149.943 176.236 149.929C176.369 149.869 176.518 149.853 176.661 149.885C176.804 149.916 176.933 149.994 177.028 150.105C177.079 150.169 177.117 150.243 177.14 150.323C177.14 150.38 177.14 150.412 177.14 150.412C177.106 150.31 177.053 150.215 176.983 150.134C176.904 150.047 176.802 149.984 176.689 149.952C176.552 149.907 176.402 149.916 176.271 149.977C176.217 150.012 176.236 150.073 176.296 150.108C176.36 150.142 176.426 150.168 176.494 150.188C176.612 150.226 176.731 150.256 176.852 150.278C177.053 150.31 177.2 150.31 177.2 150.319Z" fill="#263238"/>
<path d="M177.111 150.335C177.09 150.303 177.075 150.266 177.069 150.227C177.062 150.189 177.063 150.15 177.073 150.112C177.084 150.026 177.117 149.945 177.168 149.875C177.2 149.825 177.243 149.784 177.295 149.755C177.346 149.726 177.403 149.71 177.462 149.709C177.479 149.711 177.495 149.717 177.51 149.727C177.524 149.736 177.537 149.748 177.547 149.762C177.557 149.776 177.564 149.791 177.567 149.808C177.571 149.825 177.571 149.842 177.568 149.859C177.559 149.912 177.538 149.962 177.507 150.006C177.46 150.078 177.404 150.143 177.341 150.201C177.285 150.26 177.216 150.305 177.14 150.332C177.14 150.332 177.21 150.275 177.306 150.172C177.362 150.112 177.412 150.047 177.456 149.977C177.504 149.907 177.536 149.785 177.456 149.769C177.376 149.753 177.28 149.843 177.226 149.907C177.175 149.968 177.14 150.04 177.124 150.118C177.11 150.19 177.106 150.263 177.111 150.335Z" fill="#263238"/>
<path d="M182.995 150.025C182.995 150.025 182.838 150.025 182.592 150.025C182.277 150.055 181.974 150.165 181.714 150.345C181.464 150.526 181.272 150.776 181.161 151.064C181.075 151.279 181.065 151.426 181.053 151.423C181.046 151.389 181.046 151.354 181.053 151.32C181.064 151.228 181.086 151.136 181.116 151.048C181.223 150.748 181.416 150.486 181.672 150.297C181.942 150.107 182.26 149.997 182.589 149.977C182.689 149.968 182.789 149.968 182.889 149.977C182.927 149.988 182.962 150.004 182.995 150.025Z" fill="#263238"/>
<path d="M180.366 150.978C179.838 151.069 179.298 151.069 178.769 150.978C178.769 150.959 179.124 150.978 179.561 150.978C179.999 150.978 180.363 150.962 180.366 150.978Z" fill="#263238"/>
<path d="M181.43 150.981C181.43 150.981 181.401 151.052 181.363 151.128C181.324 151.205 181.308 151.269 181.289 151.269C181.27 151.269 181.26 151.189 181.289 151.103C181.318 151.016 181.42 150.972 181.43 150.981Z" fill="#263238"/>
<path d="M181.845 150.521C181.845 150.521 181.822 150.585 181.765 150.636C181.707 150.687 181.653 150.722 181.64 150.709C181.628 150.697 181.663 150.646 181.72 150.594C181.778 150.543 181.822 150.508 181.845 150.521Z" fill="#263238"/>
<path d="M182.413 150.31C182.413 150.326 182.337 150.326 182.257 150.351C182.177 150.377 182.12 150.419 182.104 150.406C182.088 150.393 182.136 150.326 182.235 150.294C182.334 150.262 182.42 150.294 182.413 150.31Z" fill="#263238"/>
<path d="M182.822 150.211C182.822 150.227 182.797 150.252 182.752 150.268C182.707 150.284 182.666 150.287 182.66 150.268C182.653 150.249 182.685 150.227 182.73 150.211C182.775 150.195 182.803 150.198 182.822 150.211Z" fill="#263238"/>
<path d="M175.313 79.2299L166.883 70.6802L167.953 59.5439L168.145 59.3233C168.25 59.2018 168.368 59.0675 168.509 58.9205C168.671 58.7541 168.86 58.6158 169.068 58.5112C169.321 58.3701 169.592 58.2626 169.873 58.1915C170.138 58.1563 170.224 57.8206 170.013 57.7087C169.803 57.5968 169.074 57.6831 168.346 58.1435C167.618 58.6039 168.062 57.341 168.212 56.8646C168.362 56.3882 168.771 54.9462 168.662 54.7895C168.509 54.5625 168.228 54.6904 168.084 55.154C167.94 55.6176 167.42 56.9925 167.177 56.9061C166.934 56.8198 167.749 54.4698 167.749 54.4698C167.749 54.4698 168.004 53.9966 167.726 53.8879C167.228 53.6896 166.554 56.2475 166.493 56.4905C166.455 56.6599 166.174 56.5768 166.241 56.3978C166.308 56.2187 167.103 54.0701 166.595 53.8655C166.209 53.7088 166.02 55.9629 165.605 56.321C165.19 56.6791 165.925 54.6232 165.548 54.489C165.407 54.4378 165.292 54.4186 165.043 55.656C164.838 56.5081 164.678 57.3704 164.564 58.2394L161.913 71.5435L170.218 82.5392L175.313 79.2299Z" fill="#FFBE9D"/>
<path d="M179.609 54.7511C179.261 54.9494 180.35 56.8422 179.877 56.5672C179.405 56.2922 178.817 54.1021 178.466 54.3291C178.002 54.6232 179.181 56.5832 179.267 56.7559C179.354 56.9285 179.104 57.0564 179.034 56.8933C178.932 56.6631 177.811 54.2715 177.357 54.5529C177.105 54.7096 177.44 55.1316 177.44 55.1316C177.44 55.1316 178.654 57.2994 178.437 57.4241C178.22 57.5488 177.456 56.305 177.229 55.8638C177.003 55.4226 176.709 55.3554 176.591 55.608C176.514 55.7807 177.172 57.1395 177.405 57.568C177.638 57.9964 178.296 59.1666 177.498 58.8469C176.699 58.5272 175.968 58.5719 175.782 58.719C175.597 58.8661 175.741 59.1794 176.006 59.1666C176.296 59.1864 176.581 59.2445 176.856 59.3393C177.086 59.4078 177.302 59.516 177.495 59.659C177.657 59.7773 177.798 59.8892 177.923 59.9788L178.153 60.161L182.708 71.4028L178.571 81.0428L184.985 83.4344L187.86 70.6834L181.251 58.2778C180.983 57.4442 180.671 56.6255 180.315 55.8254C179.849 54.6392 179.74 54.6744 179.609 54.7511Z" fill="#FFBE9D"/>
<path d="M193.919 123.056L189.767 101.602L183.883 102.11V102.059L173.137 103.034C173.137 103.034 172.632 127.673 172.454 127.673L175.399 150.134L183.883 149.747L180.605 127.388L181.813 109.448L182.056 109.128L186.956 127.465L203.672 146.399L209.102 141.13L193.919 123.056Z" fill="#455A64"/>
<path d="M180.82 124.002C180.812 123.941 180.812 123.878 180.82 123.817C180.82 123.679 180.82 123.497 180.839 123.292C180.861 122.816 180.896 122.164 180.938 121.374C181.04 119.727 181.181 117.492 181.334 115.021C181.491 112.783 181.634 110.73 181.743 109.163V109.144L183.215 107.392L183.624 106.922C183.72 106.813 183.771 106.759 183.778 106.765C183.741 106.828 183.7 106.888 183.653 106.944L183.27 107.437L181.845 109.202V109.167C181.746 110.733 181.618 112.783 181.478 115.024C181.305 117.496 181.158 119.727 181.034 121.374C180.97 122.17 180.919 122.819 180.88 123.292C180.858 123.503 180.842 123.676 180.829 123.814C180.834 123.877 180.831 123.94 180.82 124.002Z" fill="#263238"/>
<path d="M183.87 102.059C183.954 102.74 183.982 103.426 183.953 104.112C183.982 104.797 183.954 105.483 183.87 106.164C183.759 104.798 183.759 103.425 183.87 102.059Z" fill="#263238"/>
<path d="M176.626 103.913C176.712 103.888 176.801 103.873 176.891 103.869L177.673 103.776C178.354 103.696 179.334 103.587 180.51 103.456H180.59V103.536C180.59 104.546 180.59 105.707 180.59 106.944V106.996L180.545 107.018L180.484 107.047L178.443 108.07L178.402 108.089L178.367 108.067L176.591 107.015L176.559 106.992V106.957C176.559 106.046 176.584 105.288 176.591 104.719L176.61 104.118C176.602 104.051 176.602 103.983 176.61 103.917C176.619 103.992 176.625 104.068 176.626 104.144C176.626 104.307 176.626 104.511 176.626 104.761C176.626 105.311 176.645 106.056 176.661 106.951L176.626 106.89L178.414 107.923H178.341L180.389 106.906L180.449 106.874L180.401 106.951C180.401 105.713 180.401 104.553 180.401 103.542L180.484 103.616C179.334 103.718 178.37 103.795 177.683 103.846L176.881 103.904C176.796 103.911 176.711 103.914 176.626 103.913Z" fill="#263238"/>
<path d="M184.899 103.108C184.986 103.085 185.074 103.071 185.164 103.066L185.946 102.97C186.627 102.89 187.607 102.781 188.783 102.65H188.863V102.733C188.863 103.741 188.863 104.904 188.863 106.139V106.19L188.815 106.212L188.754 106.244L186.703 107.255L186.665 107.271L186.627 107.251L184.851 106.196L184.819 106.177V106.151C184.819 105.24 184.844 104.482 184.854 103.913V103.309C184.846 103.242 184.846 103.175 184.854 103.108C184.863 103.183 184.869 103.259 184.87 103.335C184.87 103.501 184.87 103.702 184.87 103.952C184.87 104.502 184.889 105.247 184.905 106.142L184.87 106.084L186.659 107.117H186.636L188.684 106.1L188.745 106.072L188.697 106.145C188.697 104.911 188.697 103.747 188.697 102.74L188.777 102.813C187.627 102.916 186.662 102.992 185.975 103.044L185.173 103.101C185.082 103.109 184.99 103.111 184.899 103.108Z" fill="#263238"/>
<path d="M180.593 104.393C179.278 104.565 177.951 104.627 176.625 104.578C177.279 104.463 177.942 104.405 178.606 104.403C179.267 104.345 179.931 104.341 180.593 104.393Z" fill="#263238"/>
<path d="M188.793 103.638C187.505 103.846 186.203 103.945 184.899 103.936C185.537 103.802 186.186 103.724 186.838 103.702C187.487 103.627 188.14 103.606 188.793 103.638Z" fill="#263238"/>
<path d="M179.929 127.199C178.658 127.468 177.367 127.626 176.07 127.673C177.34 127.405 178.631 127.246 179.929 127.199Z" fill="#263238"/>
<path d="M193.383 123.519C193.383 123.567 192.463 123.893 191.406 124.479C190.348 125.064 189.579 125.69 189.543 125.652C189.679 125.481 189.839 125.331 190.019 125.208C190.43 124.88 190.867 124.587 191.326 124.331C191.784 124.081 192.262 123.867 192.754 123.692C192.953 123.601 193.165 123.543 193.383 123.519Z" fill="#263238"/>
<path d="M175.312 49.2389C175.29 49.2007 175.27 49.1612 175.252 49.1206L175.079 48.7689C175.006 48.6154 174.92 48.4172 174.805 48.1966L174.389 47.4324C174.23 47.1511 174.028 46.8473 173.821 46.5084C173.613 46.1695 173.348 45.8274 173.073 45.4565C172.431 44.6267 171.725 43.8485 170.962 43.1288C168.958 41.2634 166.565 39.8667 163.957 39.0394C162.42 38.5558 160.821 38.2963 159.21 38.2689C155.733 38.193 152.306 39.1054 149.327 40.9003C147.944 41.7293 146.685 42.751 145.589 43.9345C143.737 45.951 142.354 48.3533 141.539 50.9687C141.235 51.9719 141.009 52.997 140.862 54.0349C140.808 54.4921 140.766 54.9238 140.737 55.3139C140.708 55.7039 140.699 56.0716 140.702 56.3978C140.705 56.7239 140.702 57.0116 140.721 57.2642C140.74 57.5168 140.756 57.7278 140.766 57.9037C140.776 58.0796 140.788 58.1979 140.795 58.2938C140.798 58.3385 140.798 58.3833 140.795 58.4281C140.784 58.385 140.777 58.3412 140.772 58.297C140.772 58.201 140.747 58.07 140.731 57.9069C140.715 57.7438 140.683 57.5232 140.667 57.2674C140.651 57.0116 140.648 56.7239 140.635 56.3978C140.622 56.0716 140.635 55.7071 140.654 55.3075C140.673 54.9078 140.715 54.4794 140.766 54.0285C140.897 52.9815 141.11 51.9466 141.405 50.9335C142.211 48.2945 143.595 45.8686 145.455 43.8322C146.557 42.6348 147.826 41.6021 149.221 40.766C152.224 38.9495 155.683 38.0278 159.191 38.109C160.817 38.1394 162.431 38.4043 163.982 38.8956C166.61 39.7387 169.016 41.1588 171.026 43.0521C171.788 43.7811 172.492 44.569 173.131 45.4085C173.405 45.7858 173.651 46.1407 173.872 46.4764C174.092 46.8121 174.274 47.1159 174.431 47.41L174.833 48.1838C174.945 48.4076 175.025 48.6059 175.095 48.7657C175.165 48.9256 175.213 49.0375 175.252 49.1238C175.275 49.1606 175.295 49.1991 175.312 49.2389Z" fill="#263238"/>
<path d="M171.699 48.3565C171.642 48.2996 171.592 48.2363 171.549 48.1678C171.453 48.0399 171.329 47.8481 171.14 47.6051C170.628 46.9218 170.062 46.2803 169.447 45.6867C168.54 44.8116 167.532 44.0474 166.445 43.4102C163.773 41.8266 160.682 41.096 157.584 41.3159C156.327 41.3992 155.084 41.631 153.882 42.0066C153.069 42.2634 152.277 42.5842 151.515 42.9658C151.243 43.0905 151.042 43.2119 150.898 43.2855C150.828 43.3264 150.754 43.3617 150.678 43.391C150.741 43.3392 150.81 43.2942 150.882 43.2567C151.02 43.1768 151.202 43.0457 151.486 42.9114C152.241 42.5079 153.029 42.1719 153.843 41.9074C156.546 41.021 159.44 40.8982 162.208 41.5526C164.976 42.207 167.51 43.6132 169.531 45.6163C170.14 46.2166 170.696 46.8692 171.192 47.5667C171.374 47.8097 171.489 48.0143 171.578 48.1486C171.622 48.2156 171.663 48.285 171.699 48.3565Z" fill="#263238"/>
<path d="M187.863 85.8612L186.378 93.5891C189.473 97.8991 189.754 101.582 189.754 101.582L173.125 103.015C173.444 100.403 175.041 94.753 175.041 94.753L172.626 86.5038L167.79 80.2083L172.581 75.8791C172.489 76.1221 177.082 78.7823 177.082 78.7823L183.682 78.8398C184.006 78.8733 184.327 78.9364 184.64 79.0285L187.863 70.6611C187.863 70.6611 190.355 74.3316 189.521 78.8366C188.924 82.034 189.039 82.7917 187.863 85.8708" fill="#008060"/>
<path d="M175.801 79.9909C175.895 80.0749 175.977 80.1718 176.044 80.2786C176.243 80.5624 176.41 80.8669 176.542 81.1867C176.736 81.6651 176.844 82.1737 176.862 82.6894C176.888 83.3277 176.753 83.9623 176.469 84.5343C176.188 85.1122 175.744 85.5948 175.191 85.9219C174.738 86.182 174.225 86.3197 173.703 86.3216C173.355 86.325 173.009 86.2587 172.687 86.1266C172.599 86.0905 172.515 86.0466 172.435 85.9955C172.38 85.9635 172.352 85.9411 172.355 85.9379C172.781 86.1197 173.24 86.2101 173.703 86.2033C174.2 86.184 174.685 86.0424 175.115 85.7908C175.634 85.4706 176.051 85.0093 176.319 84.4608C176.591 83.9131 176.725 83.3072 176.709 82.6958C176.694 82.1952 176.597 81.7004 176.421 81.2314C176.245 80.8032 176.038 80.3885 175.801 79.9909Z" fill="#263238"/>
<path d="M187.291 85.6182C187.262 85.6182 187.406 85.2985 187.547 84.7901C187.914 83.4436 187.801 82.0112 187.227 80.7391C187.007 80.2531 186.818 79.9781 186.841 79.9621C186.863 79.9461 186.905 80.0197 186.997 80.1412C187.119 80.3139 187.226 80.4969 187.317 80.6879C187.639 81.323 187.834 82.0148 187.892 82.7246C187.948 83.4342 187.864 84.1479 187.646 84.8252C187.582 85.0302 187.501 85.2292 187.403 85.42C187.345 85.5542 187.301 85.6246 187.291 85.6182Z" fill="#263238"/>
<g opacity="0.3">
<path d="M185.062 93.1255C184.969 93.0543 184.858 93.0091 184.742 92.9945C184.626 92.9799 184.508 92.9964 184.4 93.0424C184.038 93.1613 183.663 93.2385 183.282 93.2726C182.57 93.2886 181.928 92.8857 181.27 92.6108C180.612 92.3358 179.778 92.2143 179.258 92.7003C179.072 92.8833 178.953 93.1243 178.923 93.3835C178.892 93.6428 178.95 93.9048 179.088 94.1263C179.253 94.3616 179.503 94.5242 179.785 94.5803C181.446 95.0503 182.873 94.705 184.499 94.0528C184.703 93.9893 184.887 93.8735 185.033 93.717C185.106 93.6373 185.149 93.5345 185.154 93.4265C185.159 93.3184 185.126 93.212 185.062 93.1255Z" fill="black"/>
</g>
<g opacity="0.3">
<path d="M172.86 75.8151C172.139 76.6861 171.773 77.797 171.834 78.9262C171.943 80.0388 172.697 81.1195 173.776 81.4073C174.517 81.6023 175.326 81.4265 176.051 81.6727C177.389 82.1235 178.098 83.8788 179.507 84.0035C180.785 84.1186 181.708 82.8301 182.896 82.3569C183.529 82.1614 184.181 82.0349 184.841 81.9796C186.193 81.759 187.521 81.1067 188.31 79.9877C189.099 78.8686 189.227 77.238 188.406 76.1509C187.528 74.9806 185.899 74.6929 184.439 74.6929C182.221 74.6935 180.025 75.1369 177.98 75.9974C177.532 76.1635 177.117 76.407 176.753 76.7168C176.571 76.8725 176.425 77.0655 176.324 77.2829C176.223 77.5003 176.17 77.7369 176.169 77.9765" fill="black"/>
</g>
<path d="M191.875 74.9295C191.836 74.6371 191.719 74.3605 191.537 74.1283C191.355 73.8962 191.114 73.7169 190.84 73.609C190.201 73.3628 189.447 73.5387 188.821 73.2605C188.039 72.912 187.71 71.9816 187.512 71.1598C187.314 70.3381 187.125 69.4045 186.451 68.877C185.985 68.5125 185.368 68.4037 184.854 68.0904C184.11 67.6332 183.704 66.7955 183.196 66.0825C183.001 65.8088 182.772 65.5606 182.516 65.3439L182.487 65.3023C181.404 63.9978 178.52 63.8284 177.274 64.9826L177.322 64.9378C174.996 65.1137 173.521 68.8738 173.489 71.2558C173.489 72.7393 173.952 74.29 173.393 75.6617C173.073 76.461 172.415 77.1037 172.166 77.9286C171.995 78.4954 172.03 79.1043 172.263 79.6484C172.496 80.1925 172.913 80.6371 173.441 80.9041C173.969 81.1712 174.574 81.2436 175.149 81.1088C175.725 80.9739 176.235 80.6404 176.59 80.1667C176.555 80.771 177.053 81.305 177.622 81.5096C178.206 81.674 178.818 81.711 179.417 81.6183C180.695 81.5128 182.196 81.2986 182.857 80.1763C183.301 80.8446 184.174 81.1163 184.972 81.0588C185.752 81.0418 186.523 80.8836 187.246 80.592C187.216 80.5502 187.188 80.5064 187.163 80.4609C187.283 80.4159 187.399 80.3603 187.508 80.2946C188.122 79.9205 188.502 79.1084 188.214 78.4466L188.911 79.2555C189.502 78.9145 189.948 78.3675 190.162 77.7189C190.376 77.0702 190.345 76.3653 190.073 75.7384C190.483 75.9082 190.855 76.157 191.169 76.4706C191.414 76.3005 191.608 76.0678 191.733 75.7967C191.857 75.5256 191.906 75.2261 191.875 74.9295Z" fill="#263238"/>
<path d="M191.581 75.9207C191.619 75.6594 191.566 75.3929 191.431 75.1661C191.27 74.9044 191.036 74.6963 190.757 74.5682C190.38 74.4124 189.979 74.3195 189.572 74.2932C189.064 74.2656 188.564 74.1577 188.09 73.9735C187.824 73.8535 187.591 73.6702 187.413 73.4395C187.229 73.1949 187.09 72.92 187 72.6274C186.802 72.0391 186.758 71.3901 186.563 70.773C186.47 70.4588 186.323 70.1633 186.128 69.9001C185.929 69.6395 185.646 69.4564 185.327 69.3821C185.007 69.3022 184.649 69.3086 184.301 69.2383C183.951 69.1755 183.631 69.0018 183.388 68.7427C182.902 68.2407 182.711 67.5948 182.496 67.0353C182.321 66.4963 182.028 66.0036 181.637 65.5933C181.214 65.1567 180.682 64.8414 180.096 64.68C179.51 64.5187 178.892 64.5172 178.306 64.6757C178.051 64.7495 177.802 64.8381 177.558 64.941C177.614 64.8987 177.674 64.8623 177.737 64.8323C177.914 64.7415 178.099 64.6676 178.29 64.6117C179 64.399 179.759 64.4214 180.455 64.6757C180.936 64.8521 181.372 65.1315 181.733 65.4942C182.145 65.9136 182.456 66.4223 182.64 66.9809C182.857 67.5469 183.052 68.1671 183.506 68.6276C183.726 68.8628 184.016 69.0208 184.333 69.0784C184.653 69.1423 185.007 69.1327 185.365 69.2223C185.722 69.3096 186.038 69.5173 186.259 69.8106C186.467 70.0888 186.622 70.4032 186.716 70.7378C186.917 71.3773 186.956 72.0167 187.147 72.5923C187.212 72.8651 187.334 73.1208 187.507 73.3416C187.68 73.5624 187.898 73.7431 188.147 73.8712C188.607 74.0524 189.092 74.1602 189.585 74.1909C190.004 74.2278 190.415 74.3359 190.799 74.5107C191.087 74.6483 191.327 74.8716 191.485 75.1501C191.586 75.3268 191.635 75.5286 191.626 75.732C191.62 75.7968 191.605 75.8603 191.581 75.9207Z" fill="#455A64"/>
<path d="M187.499 80.528C187.499 80.528 187.566 80.4993 187.674 80.4225C187.83 80.3067 187.942 80.1425 187.994 79.9557C188.086 79.6629 188.067 79.3463 187.94 79.0668C187.744 78.7088 187.45 78.4139 187.093 78.2164C186.71 77.9734 186.237 77.7911 185.771 77.4938C185.526 77.3427 185.31 77.1501 185.132 76.9246C184.942 76.6781 184.802 76.3968 184.72 76.0965C184.592 75.4637 184.51 74.8226 184.474 74.1781C184.394 73.5387 184.196 72.8384 183.627 72.4452C183.059 72.0519 182.35 71.94 181.842 71.422C181.414 70.9227 181.143 70.3073 181.065 69.6539C180.966 69.0464 180.925 68.4677 180.788 67.9497C180.66 67.4699 180.444 67.0186 180.149 66.6196C179.713 66.0406 179.135 65.5836 178.472 65.2927C177.999 65.0977 177.715 65.0593 177.718 65.0401C177.787 65.0408 177.855 65.0494 177.922 65.0657C178.118 65.1055 178.311 65.1622 178.497 65.2352C179.186 65.5084 179.788 65.9624 180.241 66.5493C180.554 66.956 180.785 67.4197 180.922 67.9146C181.069 68.4453 181.113 69.0304 181.219 69.6251C181.293 70.2481 181.551 70.8348 181.96 71.3101C182.404 71.7801 183.123 71.8952 183.726 72.3109C184.022 72.5244 184.251 72.8169 184.388 73.155C184.516 73.4757 184.599 73.8124 184.637 74.1557C184.668 74.7903 184.745 75.4217 184.867 76.0454C184.937 76.3249 185.062 76.5879 185.234 76.8191C185.402 77.0344 185.606 77.2184 185.838 77.3627C186.285 77.6536 186.758 77.8455 187.151 78.1013C187.522 78.3141 187.823 78.6308 188.016 79.0125C188.151 79.316 188.162 79.6599 188.048 79.9717C187.984 80.1661 187.855 80.333 187.684 80.4449C187.628 80.4842 187.565 80.5124 187.499 80.528Z" fill="#455A64"/>
<path d="M179.785 81.2283C179.92 81.0422 179.993 80.8187 179.996 80.5888C179.996 80.3261 179.939 80.0666 179.83 79.8278C179.708 79.5433 179.51 79.2459 179.344 78.8686C179.152 78.471 179.104 78.0186 179.21 77.5897C179.357 77.1139 179.554 76.6552 179.798 76.2212C180.062 75.7569 180.206 75.2336 180.216 74.6993C180.204 74.1273 180.008 73.5744 179.657 73.123C179.306 72.6498 178.871 72.2501 178.529 71.7833C178.357 71.5557 178.217 71.3049 178.114 71.0384C178.023 70.7796 177.968 70.5096 177.951 70.2358C177.933 69.7375 177.971 69.2386 178.066 68.7491C178.149 68.3262 178.21 67.8993 178.248 67.4701C178.323 66.8578 178.205 66.2374 177.91 65.6956C177.789 65.505 177.644 65.3309 177.479 65.1776C177.533 65.2036 177.582 65.2382 177.625 65.28C177.758 65.3878 177.872 65.5163 177.964 65.6604C178.291 66.2061 178.433 66.8435 178.367 67.4765C178.334 67.9053 178.279 68.3321 178.204 68.7555C178.115 69.2339 178.082 69.721 178.105 70.207C178.122 70.467 178.175 70.7232 178.264 70.968C178.363 71.2198 178.496 71.4565 178.66 71.6714C178.98 72.1191 179.427 72.5155 179.791 73.0079C180.161 73.4877 180.367 74.074 180.379 74.6801C180.367 75.2418 180.214 75.7915 179.935 76.2788C179.693 76.703 179.495 77.1508 179.344 77.6153C179.236 78.0193 179.274 78.4488 179.453 78.8271C179.609 79.182 179.798 79.4889 179.916 79.7863C180.022 80.0398 180.071 80.3139 180.06 80.5888C180.052 80.7624 179.999 80.9311 179.906 81.078C179.876 81.1353 179.834 81.1863 179.785 81.2283Z" fill="#455A64"/>
<path d="M174.179 80.9661C174.136 80.9233 174.104 80.8706 174.086 80.8126C174.028 80.6448 174.028 80.4624 174.086 80.2946C174.178 80.0314 174.348 79.8019 174.572 79.636C174.861 79.4321 175.134 79.2066 175.389 78.9613C175.669 78.6432 175.85 78.2514 175.913 77.8327C175.973 77.3486 175.894 76.8576 175.686 76.4163C175.442 75.9079 175.332 75.3454 175.367 74.7824C175.48 74.1944 175.685 73.6279 175.974 73.1038C176.251 72.5954 176.398 72.0265 176.402 71.4476C176.348 70.9033 176.233 70.3669 176.057 69.8489C175.759 68.9471 175.733 67.9777 175.98 67.0609C176.16 66.4455 176.523 65.8999 177.022 65.4974C177.156 65.3907 177.302 65.2985 177.456 65.2224C177.509 65.1929 177.566 65.1713 177.625 65.1584C177.426 65.2732 177.234 65.4025 177.054 65.5453C176.589 65.9557 176.256 66.494 176.095 67.0928C175.872 67.9887 175.911 68.9298 176.207 69.8042C176.391 70.3284 176.512 70.8725 176.568 71.4252C176.569 72.0318 176.417 72.6289 176.127 73.1614C175.849 73.6709 175.648 74.2195 175.533 74.7888C175.505 75.3277 175.615 75.8649 175.853 76.3491C175.95 76.5907 176.024 76.8413 176.073 77.0973C176.114 77.3428 176.114 77.5935 176.073 77.8391C176.001 78.2821 175.801 78.6944 175.498 79.0253C175.236 79.2727 174.953 79.4964 174.651 79.6935C174.436 79.8455 174.268 80.0564 174.169 80.301C174.106 80.4551 174.094 80.6254 174.134 80.787C174.156 80.9117 174.195 80.9629 174.179 80.9661Z" fill="#455A64"/>
<path d="M42.2534 142.882C42.2673 142.834 42.2866 142.786 42.3109 142.742L42.4994 142.336C42.7313 141.813 42.9183 141.272 43.0584 140.718C43.4257 139.279 43.5535 137.082 43.0105 134.47C42.7154 133.048 42.3281 131.647 41.851 130.275C41.3622 128.785 40.7936 127.206 40.3273 125.499C39.8024 123.716 39.5494 121.864 39.5766 120.005C39.6469 118.062 40.2155 116.121 40.8543 114.193C41.4932 112.265 42.1321 110.356 42.3301 108.466C42.5516 106.639 42.1893 104.789 41.2951 103.181C40.4582 101.637 39.4073 100.32 38.6183 98.9511C37.888 97.683 37.3497 96.3135 37.0212 94.8872C36.5467 92.8179 36.513 90.6718 36.9221 88.5885C37.0607 87.8232 37.2747 87.0735 37.561 86.3504C37.5526 86.4004 37.5397 86.4496 37.5227 86.4974L37.3885 86.9259C37.2239 87.4725 37.0885 88.0275 36.9828 88.5885C36.6046 90.6651 36.659 92.7975 37.1425 94.8521C37.4723 96.2628 38.0106 97.6163 38.7397 98.8679C39.5255 100.217 40.5828 101.531 41.4357 103.092C42.3558 104.73 42.7348 106.618 42.5186 108.486C42.3205 110.42 41.6625 112.322 41.0332 114.241C40.4039 116.159 39.8353 118.078 39.7555 119.996C39.728 121.834 39.9756 123.666 40.4902 125.431C40.947 127.129 41.5092 128.712 41.9947 130.205C42.4679 131.585 42.8478 132.995 43.1319 134.425C43.6621 137.057 43.512 139.276 43.1319 140.718C42.9836 141.274 42.7848 141.816 42.5377 142.336C42.4483 142.502 42.3812 142.633 42.3301 142.732C42.3081 142.784 42.2825 142.834 42.2534 142.882Z" fill="#263238"/>
<path d="M39.6758 100.3C39.6758 100.3 38.0787 95.1846 40.9535 92.1823C40.9744 92.1524 41.004 92.1297 41.0383 92.1174C41.0726 92.1051 41.1099 92.1037 41.145 92.1136C41.1801 92.1234 41.2113 92.1439 41.2342 92.1723C41.2571 92.2006 41.2707 92.2354 41.273 92.2718C41.4039 93.1159 41.5956 95.6898 39.6758 100.3Z" fill="#008060"/>
<path d="M40.6341 93.8897C40.6317 94.2123 40.5953 94.5339 40.5255 94.8489C40.4201 95.4883 40.2987 96.2621 40.1613 97.1062C40.024 97.9503 39.9058 98.7049 39.8036 99.3635C39.7761 99.6803 39.7194 99.9939 39.6343 100.3C39.6059 99.9806 39.6156 99.6586 39.663 99.3411C39.7141 98.756 39.8196 97.9503 39.9633 97.0678C40.107 96.1854 40.2636 95.3892 40.3881 94.8297C40.4351 94.5082 40.5176 94.1929 40.6341 93.8897Z" fill="#263238"/>
<path d="M41.554 112.373C41.554 112.373 42.5314 107.101 46.47 105.793C46.501 105.782 46.5346 105.78 46.5669 105.787C46.5991 105.794 46.6288 105.809 46.6525 105.833C46.6761 105.856 46.6929 105.885 46.7007 105.917C46.7085 105.949 46.7072 105.983 46.6968 106.014C46.4381 106.832 45.4031 109.199 41.554 112.373Z" fill="#008060"/>
<path d="M45.3966 107.155C45.2439 107.434 45.0641 107.696 44.86 107.939L43.4833 109.764L42.1129 111.587C41.9412 111.853 41.7443 112.103 41.5251 112.332C41.6481 112.039 41.8057 111.762 41.9947 111.507C42.3141 111.015 42.7837 110.35 43.3235 109.637C43.8634 108.924 44.3713 108.294 44.7482 107.846C44.9391 107.593 45.1565 107.362 45.3966 107.155Z" fill="#263238"/>
<path d="M40.4902 125.604C40.4902 125.604 39.8961 120.274 43.2853 117.879C43.3116 117.859 43.3429 117.848 43.3757 117.845C43.4085 117.842 43.4414 117.848 43.4707 117.863C43.5 117.878 43.5245 117.901 43.5414 117.93C43.5583 117.958 43.567 117.99 43.5663 118.023C43.5568 118.883 43.2533 121.447 40.4902 125.604Z" fill="#008060"/>
<path d="M42.6528 119.494C42.5893 119.805 42.4941 120.108 42.3685 120.399L41.5795 122.547C41.2856 123.35 41.0237 124.076 40.7969 124.696C40.7111 125.001 40.5956 125.296 40.4519 125.578C40.4849 125.262 40.5557 124.951 40.6627 124.651C40.8256 124.088 41.0812 123.318 41.391 122.477C41.7009 121.636 42.0043 120.878 42.2343 120.348C42.3426 120.049 42.4829 119.763 42.6528 119.494Z" fill="#263238"/>
<path d="M43.4547 138.911C43.4547 138.911 43.0522 133.562 46.5244 131.292C46.5514 131.274 46.583 131.263 46.6156 131.262C46.6483 131.26 46.6807 131.268 46.7093 131.284C46.7378 131.3 46.7613 131.323 46.7772 131.352C46.7931 131.38 46.8007 131.413 46.7991 131.446C46.7576 132.302 46.3647 134.857 43.4547 138.911Z" fill="#008060"/>
<path d="M45.8343 132.881C45.7597 133.191 45.6526 133.492 45.5149 133.78C45.2658 134.387 44.9719 135.103 44.6493 135.896L43.7932 138.013C43.6947 138.315 43.5685 138.607 43.4163 138.886C43.4601 138.57 43.5416 138.261 43.659 137.965C43.8411 137.409 44.1254 136.648 44.464 135.82C44.8026 134.991 45.1348 134.253 45.384 133.722C45.5053 133.427 45.6562 133.146 45.8343 132.881Z" fill="#263238"/>
<path d="M37.3758 95.8017C37.3758 95.8017 32.6259 93.3174 32.5333 89.1672C32.5325 89.1345 32.5406 89.1021 32.5569 89.0737C32.5732 89.0453 32.597 89.0219 32.6257 89.006C32.6543 88.9902 32.6868 88.9826 32.7195 88.9839C32.7522 88.9853 32.7839 88.9956 32.8112 89.0137C33.5171 89.5029 35.472 91.1879 37.3758 95.8017Z" fill="#008060"/>
<path d="M33.5203 90.5932C33.7422 90.8207 33.9402 91.0703 34.1112 91.3382L35.4528 93.1895L36.7944 95.0407C36.9992 95.2833 37.181 95.5445 37.3375 95.8209C37.0968 95.6168 36.8822 95.3837 36.6986 95.127C36.3217 94.6762 35.8266 94.0336 35.3059 93.3078C34.7852 92.582 34.3284 91.9105 34.0282 91.4181C33.8286 91.163 33.6583 90.8863 33.5203 90.5932Z" fill="#263238"/>
<path d="M42.4772 106.791C42.4772 106.791 37.5867 104.601 37.2417 100.463C37.2382 100.431 37.2439 100.398 37.2581 100.369C37.2722 100.339 37.2943 100.314 37.3219 100.297C37.3494 100.279 37.3813 100.269 37.414 100.269C37.4467 100.268 37.4788 100.277 37.5068 100.294C38.2415 100.745 40.2987 102.315 42.4772 106.791Z" fill="#008060"/>
<path d="M38.3118 101.832C38.5482 102.045 38.7623 102.282 38.9506 102.538C39.3691 103.047 39.8578 103.648 40.4008 104.307L41.8543 106.072C42.0712 106.302 42.2678 106.552 42.442 106.816C42.1851 106.633 41.9522 106.418 41.7488 106.177C41.3464 105.752 40.8097 105.141 40.2443 104.447C39.6789 103.753 39.187 103.111 38.8388 102.638C38.634 102.389 38.4572 102.119 38.3118 101.832Z" fill="#263238"/>
<path d="M39.663 119.059C39.663 119.059 36.3058 114.88 37.8806 111.04C37.8916 111.008 37.9116 110.98 37.9383 110.959C37.965 110.938 37.9972 110.925 38.031 110.922C38.0647 110.919 38.0987 110.926 38.1286 110.942C38.1586 110.958 38.1834 110.982 38.2 111.011C38.6472 111.74 39.7652 114.068 39.663 119.059Z" fill="#008060"/>
<path d="M38.2126 112.741C38.3246 113.038 38.407 113.346 38.4586 113.659C38.596 114.298 38.7621 115.059 38.9441 115.897C39.1262 116.735 39.2923 117.496 39.4361 118.135C39.525 118.439 39.5859 118.75 39.6181 119.065C39.4744 118.782 39.3671 118.481 39.2987 118.17C39.1326 117.608 38.9346 116.821 38.7461 115.932C38.5576 115.043 38.4267 114.26 38.3181 113.694C38.2486 113.381 38.2132 113.062 38.2126 112.741Z" fill="#263238"/>
<path d="M42.9915 133.492C42.9915 133.492 38.1362 131.219 37.8615 127.078C37.8582 127.045 37.8642 127.012 37.8788 126.983C37.8933 126.953 37.9159 126.928 37.9438 126.911C37.9718 126.894 38.004 126.885 38.0369 126.885C38.0698 126.885 38.1019 126.894 38.1298 126.912C38.8581 127.369 40.8865 128.964 42.9915 133.492Z" fill="#008060"/>
<path d="M38.9092 128.459C39.1459 128.676 39.3599 128.916 39.548 129.175L40.9663 130.969L42.391 132.756C42.6056 132.99 42.7981 133.242 42.9659 133.511C42.7025 133.32 42.4633 133.098 42.2536 132.849C41.8607 132.414 41.3337 131.794 40.781 131.094C40.2284 130.394 39.7461 129.738 39.4075 129.262C39.2125 129.013 39.0454 128.744 38.9092 128.459Z" fill="#263238"/>
<path d="M52.6605 112.402C52.6653 112.442 52.6653 112.481 52.6605 112.521C52.6605 112.613 52.6605 112.725 52.6605 112.863C52.6605 113.182 52.6254 113.62 52.603 114.164C52.5391 115.309 52.4529 116.901 52.3475 118.81C51.9993 120.75 51.0122 122.902 49.6866 124.99C48.7283 126.528 47.6934 127.928 46.8117 129.23C46.0108 130.365 45.2903 131.555 44.6556 132.792C44.2409 133.631 43.904 134.506 43.6494 135.407C43.5631 135.727 43.4992 135.979 43.4641 136.149C43.4493 136.238 43.4247 136.325 43.3906 136.408C43.394 136.319 43.4047 136.23 43.4226 136.142C43.4481 135.967 43.4992 135.714 43.5727 135.388C43.8017 134.472 44.1228 133.582 44.531 132.731C45.1528 131.48 45.8649 130.275 46.6616 129.127C47.5336 127.817 48.5494 126.416 49.5173 124.885C50.8366 122.806 51.8204 120.687 52.1782 118.778C52.3123 116.859 52.4241 115.28 52.4976 114.138C52.5391 113.598 52.5743 113.163 52.5998 112.84C52.5998 112.706 52.6254 112.594 52.6349 112.498C52.6445 112.402 52.6541 112.402 52.6605 112.402Z" fill="#263238"/>
<path d="M49.7697 124.6C49.7697 124.6 51.8236 119.647 49.2394 116.402C49.2204 116.373 49.1932 116.35 49.1611 116.336C49.129 116.323 49.0936 116.319 49.0594 116.325C49.0251 116.332 48.9936 116.348 48.9688 116.373C48.9439 116.397 48.927 116.429 48.92 116.463C48.6996 117.291 48.2748 119.839 49.7697 124.6Z" fill="#008060"/>
<path d="M49.3959 118.129C49.4833 118.434 49.5379 118.748 49.5588 119.065C49.6291 119.647 49.7122 120.456 49.776 121.348C49.8399 122.24 49.8687 123.053 49.8687 123.638C49.8887 123.959 49.8693 124.281 49.8112 124.597C49.755 124.28 49.7272 123.959 49.7281 123.638C49.6834 122.979 49.6323 122.208 49.5748 121.355C49.5173 120.501 49.463 119.731 49.4151 119.075C49.3761 118.761 49.3697 118.444 49.3959 118.129Z" fill="#263238"/>
<g opacity="0.3">
<path d="M49.7697 124.6C49.7697 124.6 51.8236 119.647 49.2394 116.402C49.2204 116.373 49.1932 116.35 49.1611 116.336C49.129 116.323 49.0936 116.319 49.0594 116.325C49.0251 116.332 48.9936 116.348 48.9688 116.373C48.9439 116.397 48.927 116.429 48.92 116.463C48.6996 117.291 48.2748 119.839 49.7697 124.6Z" fill="black"/>
</g>
<path d="M43.4002 136.526C43.4002 136.526 45.0484 131.41 42.2087 128.395C42.1871 128.367 42.1577 128.346 42.1241 128.335C42.0905 128.323 42.0543 128.322 42.0201 128.331C41.9859 128.341 41.9551 128.36 41.9318 128.387C41.9086 128.413 41.8937 128.446 41.8893 128.482C41.7423 129.339 41.5251 131.912 43.4002 136.526Z" fill="#008060"/>
<path d="M42.5027 130.131C42.6191 130.428 42.6995 130.737 42.7423 131.052C42.8604 131.625 43.0074 132.424 43.1447 133.306C43.2821 134.189 43.3747 134.998 43.4226 135.583C43.4707 135.9 43.4771 136.223 43.4418 136.542C43.3614 136.235 43.308 135.922 43.2821 135.605C43.1863 134.966 43.0713 134.189 42.9627 133.345C42.8541 132.501 42.7167 131.746 42.6177 131.084C42.5487 130.771 42.5102 130.452 42.5027 130.131Z" fill="#263238"/>
<g opacity="0.3">
<path d="M43.4002 136.526C43.4002 136.526 45.0484 131.41 42.2087 128.395C42.1871 128.367 42.1577 128.346 42.1241 128.335C42.0905 128.323 42.0543 128.322 42.0201 128.331C41.9859 128.341 41.9551 128.36 41.9318 128.387C41.9086 128.413 41.8937 128.446 41.8893 128.482C41.7423 129.339 41.5251 131.912 43.4002 136.526Z" fill="black"/>
</g>
<path d="M52.386 118.548C52.386 118.548 56.7782 115.472 56.3341 111.344C56.3314 111.311 56.3196 111.28 56.3 111.253C56.2803 111.227 56.2537 111.207 56.2231 111.195C56.1925 111.183 56.1591 111.179 56.1268 111.186C56.0945 111.192 56.0645 111.207 56.0403 111.229C55.4014 111.804 53.6797 113.726 52.386 118.548Z" fill="#008060"/>
<g opacity="0.3">
<path d="M52.386 118.548C52.386 118.548 56.7782 115.472 56.3341 111.344C56.3314 111.311 56.3196 111.28 56.3 111.253C56.2803 111.227 56.2537 111.207 56.2231 111.195C56.1925 111.183 56.1591 111.179 56.1268 111.186C56.0945 111.192 56.0645 111.207 56.0403 111.229C55.4014 111.804 53.6797 113.726 52.386 118.548Z" fill="black"/>
</g>
<path d="M55.5387 112.885C55.4521 113.191 55.3299 113.486 55.1746 113.764C54.9254 114.295 54.5613 115.018 54.1364 115.804C53.7116 116.591 53.3027 117.294 52.9897 117.79C52.8351 118.068 52.6474 118.327 52.4307 118.56C52.5493 118.266 52.6948 117.984 52.8651 117.716L53.9607 115.711L55.05 113.7C55.1857 113.413 55.3494 113.14 55.5387 112.885Z" fill="#263238"/>
<path d="M45.1699 131.478C45.1699 131.478 50.4661 130.653 51.878 126.752C51.8897 126.721 51.8927 126.687 51.8866 126.655C51.8805 126.623 51.8656 126.592 51.8434 126.568C51.8213 126.543 51.7928 126.526 51.7611 126.516C51.7294 126.507 51.6958 126.507 51.6639 126.515C50.8462 126.752 48.4537 127.717 45.1699 131.478Z" fill="#008060"/>
<g opacity="0.3">
<path d="M45.1699 131.478C45.1699 131.478 50.4661 130.653 51.878 126.752C51.8897 126.721 51.8927 126.687 51.8866 126.655C51.8805 126.623 51.8656 126.592 51.8434 126.568C51.8213 126.543 51.7928 126.526 51.7611 126.516C51.7294 126.507 51.6958 126.507 51.6639 126.515C50.8462 126.752 48.4537 127.717 45.1699 131.478Z" fill="black"/>
</g>
<path d="M50.4949 127.785C50.2813 128.024 50.0413 128.239 49.7794 128.424C49.3226 128.792 48.6774 129.281 47.9491 129.799C47.2208 130.317 46.5468 130.758 46.0325 131.078C45.7716 131.261 45.4895 131.411 45.1924 131.525C45.4273 131.312 45.6831 131.122 45.9558 130.96L47.8181 129.639L49.6804 128.315C49.9328 128.111 50.2058 127.933 50.4949 127.785Z" fill="#263238"/>
<path d="M40.1198 141.233L38.5769 151.637H48.2013L46.9524 141.233H40.1198Z" fill="#008060"/>
<path d="M47.3388 144.456C47.3388 144.51 45.6011 144.555 43.4577 144.555C41.3144 144.555 39.5767 144.51 39.5767 144.456C39.5767 144.401 41.3112 144.356 43.4577 144.356C45.6043 144.356 47.3388 144.401 47.3388 144.456Z" fill="#C6FFF1"/>
<path d="M47.5272 145.284C47.5272 145.338 45.7352 145.383 43.5215 145.383C41.3079 145.383 39.5127 145.338 39.5127 145.284C39.5127 145.229 41.3047 145.184 43.5215 145.184C45.7384 145.184 47.5272 145.229 47.5272 145.284Z" fill="#C6FFF1"/>
<path d="M218.899 137.709C218.559 137.807 218.243 137.972 217.969 138.194C217.694 138.417 217.467 138.692 217.301 139.004C216.971 139.632 216.79 140.328 216.771 141.038C216.691 142.406 217.222 143.89 217.857 145.101C219.154 144.308 219.707 142.636 219.937 141.767C220.294 140.398 220.112 137.703 218.908 137.709" fill="#008060"/>
<path d="M216.171 147.077C216.316 146.706 216.359 146.303 216.297 145.91C216.235 145.517 216.069 145.147 215.816 144.839C215.56 144.537 215.247 144.288 214.894 144.108C214.542 143.928 214.157 143.82 213.762 143.79C213.582 143.757 213.397 143.763 213.22 143.809C213.043 143.855 212.878 143.939 212.737 144.056C212.624 144.185 212.548 144.342 212.516 144.511C212.485 144.68 212.499 144.854 212.558 145.015C212.679 145.336 212.883 145.619 213.149 145.837C214.021 146.62 215.008 147.215 216.171 147.074" fill="#008060"/>
<path d="M216.915 151.448C216.922 151.354 216.922 151.26 216.915 151.167C216.915 150.965 216.915 150.706 216.915 150.396C216.93 149.546 216.808 148.698 216.554 147.886C216.284 147.074 215.803 146.348 215.161 145.782C214.966 145.614 214.752 145.47 214.522 145.354C214.443 145.312 214.375 145.287 214.331 145.268L214.264 145.248C214.568 145.414 214.855 145.61 215.12 145.834C215.739 146.404 216.203 147.122 216.468 147.921C216.718 148.724 216.847 149.559 216.851 150.399C216.867 150.719 216.88 150.984 216.893 151.167C216.891 151.261 216.898 151.355 216.915 151.448Z" fill="#263238"/>
<path d="M218.867 139.775C218.853 139.813 218.842 139.853 218.835 139.893L218.755 140.235C218.688 140.532 218.595 140.964 218.487 141.498C218.266 142.566 217.985 144.056 217.714 145.686C217.442 147.317 217.225 148.82 217.075 149.901C217.005 150.441 216.953 150.879 216.918 151.179C216.918 151.323 216.893 151.438 216.883 151.528C216.876 151.569 216.876 151.611 216.883 151.653C216.894 151.613 216.903 151.572 216.909 151.531C216.909 151.442 216.941 151.327 216.96 151.186C217.008 150.866 217.072 150.438 217.148 149.907C217.305 148.829 217.532 147.349 217.803 145.699C218.075 144.049 218.346 142.579 218.547 141.508C218.646 140.98 218.726 140.548 218.787 140.229C218.813 140.088 218.832 139.973 218.848 139.883C218.864 139.794 218.873 139.775 218.867 139.775Z" fill="#263238"/>
<path d="M217.982 148.241C218.257 147.453 218.715 146.741 219.319 146.165C219.923 145.588 220.654 145.163 221.454 144.926C221.863 144.81 222.374 144.778 222.636 145.111C222.898 145.443 222.745 145.936 222.524 146.3C222.057 147.054 221.377 147.652 220.57 148.018C219.763 148.384 218.866 148.502 217.992 148.356" fill="#008060"/>
<path d="M221.061 146.166C220.973 146.179 220.886 146.2 220.802 146.23C220.702 146.256 220.604 146.289 220.508 146.329C220.379 146.374 220.252 146.427 220.128 146.486C219.976 146.553 219.827 146.63 219.684 146.716C219.516 146.812 219.354 146.919 219.199 147.036C218.847 147.296 218.526 147.594 218.24 147.925C217.956 148.26 217.711 148.628 217.512 149.021C217.427 149.194 217.351 149.371 217.285 149.552C217.224 149.707 217.173 149.867 217.132 150.028C217.087 150.176 217.071 150.313 217.046 150.431C217.023 150.537 217.008 150.644 217.001 150.751C216.993 150.839 216.993 150.928 217.001 151.016C217.023 151.016 217.049 150.642 217.215 150.057C217.261 149.899 217.315 149.743 217.378 149.59C217.444 149.413 217.521 149.24 217.608 149.072C218.006 148.299 218.579 147.63 219.282 147.119C219.433 147.004 219.591 146.897 219.754 146.799C219.894 146.712 220.038 146.633 220.186 146.563C220.7 146.284 221.067 146.188 221.061 146.166Z" fill="#263238"/>
</svg>
