<svg width="18" height="12" viewBox="0 0 18 12" fill="none" xmlns="http://www.w3.org/2000/svg">
<path d="M16.99 1.99272C16.798 1.2787 16.235 0.715864 15.5211 0.523598C14.2169 0.166748 8.99989 0.166748 8.99989 0.166748C8.99989 0.166748 3.78311 0.166748 2.47889 0.510082C1.7787 0.70214 1.20204 1.27883 1.00998 1.99272C0.666748 3.29683 0.666748 6.00145 0.666748 6.00145C0.666748 6.00145 0.666748 8.71966 1.00998 10.0101C1.20222 10.724 1.76498 11.2869 2.47899 11.4791C3.79683 11.8361 9.0001 11.8361 9.0001 11.8361C9.0001 11.8361 14.2169 11.8361 15.5211 11.4928C16.2351 11.3006 16.798 10.7378 16.9902 10.0239C17.3333 8.71963 17.3333 6.01515 17.3333 6.01515C17.3333 6.01515 17.3471 3.29681 16.99 1.99272ZM7.3389 8.50002V3.5028L11.6771 6.0014L7.3389 8.50002Z" fill="#F61C0D"/>
</svg>
